<?xml version="1.0" encoding="UTF-8"?><svg id="b" xmlns="http://www.w3.org/2000/svg" width="142.43" height="152.69" viewBox="0 0 142.43 152.69"><g id="c"><g><g><path d="M4.75,107.78l-1.05,4.96h3.59l-.24,1.06H2.28l2.23-10.48h4.74l-.23,1.06h-3.55l-.5,2.34h3.22l-.23,1.06h-3.22Z" fill="#2e503b"/><path d="M16.07,110.58c0-.7-.29-1.29-.9-1.71l-.77-.51c-.65-.43-1.18-1.06-1.18-2.14,0-1.83,1.45-3.07,2.89-3.07s2.08,1.03,2.08,2.2c0,.24-.06,.6-.09,.75l-1.09-.06c.02-.12,.05-.34,.05-.57,0-.78-.39-1.21-1.02-1.21-.89,0-1.63,.87-1.63,1.81,0,.61,.29,1.06,.74,1.38l.81,.55c.84,.55,1.31,1.47,1.31,2.5,0,1.86-1.45,3.41-3.13,3.41-1.36,0-2.35-.79-2.35-2.88,0-.21,0-.45,.03-.7l1.18-.06c-.02,.1-.05,.37-.05,.63,0,1.23,.36,1.92,1.25,1.92s1.87-1.02,1.87-2.25Z" fill="#2e503b"/><path d="M22.64,103.31h5.81l-.24,1.06h-2.29l-2,9.42h-1.2l2-9.42h-2.31l.23-1.06Z" fill="#2e503b"/><path d="M125.52,113.31l4.99-5.42c.83-.88,1.14-1.53,1.14-2.22,0-.78-.56-1.41-1.39-1.41-.93,0-1.66,.63-1.84,1.9l-1.16-.03c.23-1.84,1.4-2.98,3.04-2.98s2.58,1.15,2.58,2.46c0,.99-.44,1.86-1.36,2.83l-3.99,4.3h3.86l-.23,1.06h-5.74l.09-.49Z" fill="#2e503b"/><path d="M135.06,113.31l4.99-5.42c.83-.88,1.14-1.53,1.14-2.22,0-.78-.56-1.41-1.39-1.41-.93,0-1.66,.63-1.84,1.9l-1.16-.03c.23-1.84,1.4-2.98,3.04-2.98s2.58,1.15,2.58,2.46c0,.99-.44,1.86-1.36,2.83l-3.99,4.3h3.86l-.23,1.06h-5.74l.09-.49Z" fill="#2e503b"/></g><g><path d="M86.95,26.36c.01,.12-.14,.42-.17,.85-.08,1.27-.27,2.54-.3,3.8-.04,1.72-.56,3.11-1.8,4.4-.88,.91-1.41,2.23-1.92,3.44-1.24,2.93-2.36,5.9-3.56,8.84-.2,.51-.51,.97-.77,1.46-.04-.06-.08-.11-.12-.17,1.72-7.92,3.44-15.83,5.11-23.5,.65-1.82-.41-1.95-.41-1.95-.89-.16-1.36,.71-1.02,1.6,.2,.51,.5,1.11,.39,1.6-1.53,7.23-3.12,14.44-4.7,21.65-.06,.26-.26,.49-.63,1.15,0-.77-.03-1.07,0-1.36,.31-2.91,.6-5.82,.95-8.72,.77-6.28,1.53-12.58,4.15-18.43,.49-1.08,1.5-1.92,2.18-2.93,.26-.39,.46-.99,.36-1.41-.07-.29-.85-.7-1.07-.59-.38,.2-.66,.73-.83,1.17-.18,.47-.08,1.06-.31,1.5-1.99,3.87-3.29,7.97-3.88,12.25-.82,5.9-1.46,11.82-2.18,17.72-.05,.43-.14,.86-.21,1.28-.15-.01-.29-.03-.44-.04,.05-.78,.11-1.57,.15-2.35,.54-10.6,2.11-21.04,5.01-31.26,.18-.65,.82-1.15,1.15-1.77,.24-.45,.47-1.02,.4-1.49-.04-.26-.94-.68-1.07-.58-.39,.33-.73,.84-.86,1.35-.23,.91-.21,1.88-.44,2.79-2.67,10.54-4.49,21.21-4.68,32.11,0,.17-.09,.33-.28,.98-.37-1.04-.76-1.62-.75-2.19,.03-1.96,.06-3.93,.32-5.86,.82-6,1.68-12,2.65-17.98,.59-3.6,1.44-7.16,2.11-10.76,.08-.42-.13-1.06-.43-1.34-.21-.19-1.03-.06-1.21,.19-.24,.32-.17,.92-.12,1.38,.06,.54,.44,1.09,.36,1.59-.96,6.52-1.98,13.03-2.99,19.54-.12,.74-.29,1.48-.44,2.22-.2-.83-.25-1.62-.19-2.41,.65-8.69,1.31-17.39,1.99-26.08,.05-.66,.43-1.28,.53-1.94,.08-.56,.1-1.2-.12-1.68-.09-.2-1.2-.24-1.32-.04-.27,.46-.3,1.12-.27,1.68,.04,.6,.42,1.19,.38,1.77-.49,8.65-1.02,17.3-1.56,25.95-.07,1.12-.24,2.24-.37,3.37-.36-.28-.47-.56-.47-.83,.09-5.74,.16-11.48,.33-17.22,.03-.94,.56-1.85,.75-2.8,.09-.46,.05-1.02-.15-1.43-.09-.18-.92-.26-1.05-.1-.28,.35-.46,.9-.45,1.36,.02,.82,.31,1.64,.3,2.46-.07,4.15-.21,8.29-.31,12.43-.03,1.35,0,2.71,0,4.19-.18-.21-.32-.3-.36-.42-.13-.46-.25-.93-.32-1.4-.93-5.7-1.07-11.43-.34-17.16,.07-.56,.58-1.05,.8-1.6,.16-.41,.32-.92,.2-1.29-.1-.29-.63-.56-1-.59-.86-.09-1.74-.03-2.98-.03,.37-.88,.74-1.58,.95-2.34,.13-.49,.16-1.11-.04-1.55-.1-.23-1.03-.38-1.19-.21-.33,.36-.52,.96-.53,1.46-.02,.77,.29,1.54,.25,2.31-.32,7.7-.67,15.4-1.02,23.1-.02,.39-.08,.78-.13,1.17-.33-.37-.47-.75-.51-1.14-.42-4.34-1.07-8.67-1.16-13.02-.08-3.93-.5-7.94,.84-11.8,.12-.35-.24-1.05-.58-1.31-.23-.17-.97,.02-1.23,.3-.24,.25-.23,.83-.16,1.24,.18,1.02,.45,2.03,.71,3.15-1.12-.07-1.81-.11-2.51-.16,.09-.86,.09-1.67,.27-2.43,.78-3.32,.63-6.87,2.53-9.91,.17-.28,.02-.99-.24-1.26-.26-.27-.97-.46-1.24-.29-.37,.23-.83,.98-.7,1.23,.82,1.69,.01,3.25-.29,4.82-1.4,7.08-2.15,14.22-1.21,21.4,.65,4.93,1.69,9.81,2.66,15.24-.64-.91-1.24-1.43-1.43-2.07-1.55-5.41-3.29-10.8-4.41-16.3-.57-2.79-.88-5.87,.51-8.71,.16-.34-.04-1.09-.34-1.35-.27-.24-.91-.14-1.37-.08-.23,.03-.44,.3-.65,.47-.13-.06-.27-.12-.4-.18,.2-.88,.48-1.74,.57-2.63,.04-.45-.12-1.13-.44-1.35-.31-.22-1.09-.16-1.38,.09-.29,.25-.37,.93-.28,1.37,.1,.49,.65,.89,.72,1.37,.66,4.52,1.26,9.04,1.88,13.57,.47,3.41,.97,6.82,1.46,10.23,.07,.47,.15,.93,.22,1.4-.48-.11-.67-.28-.79-.49-2.38-4.21-4.77-8.41-7.12-12.64-.21-.38-.1-.92-.25-1.34-.17-.5-.34-1.12-.72-1.37-.23-.15-1.13,.21-1.24,.51-.14,.42,.07,1.06,.32,1.5,.3,.53,.88,.91,1.2,1.44,3.54,5.86,7.05,11.74,10.55,17.63,.17,.29,.22,.64,.33,.97-.15,.08-.31,.17-.46,.25-1.8-2.2-3.51-4.48-5.41-6.59-3.38-3.77-4.82-8.59-7.14-12.93-.18-.34-.02-.85-.17-1.22-.19-.48-.44-1.02-.84-1.3-.18-.12-1.07,.3-1.1,.53-.06,.52,.13,1.14,.39,1.61,.35,.62,1.01,1.08,1.3,1.71,2.44,5.39,4.99,10.69,9.25,14.96,.76,.76,1.35,1.68,2.02,2.52-.13,.15-.26,.3-.39,.44-1.5-1.1-3.27-1.97-4.43-3.36-2.59-3.09-4.88-6.43-7.24-9.7-.4-.56-.47-1.35-.77-1.98-.19-.39-.5-.91-.84-.98-.35-.07-1.03,.23-1.15,.54-.16,.4-.07,1.09,.2,1.42,1,1.26,2.16,2.38,3.16,3.64,1.23,1.54,2.35,3.17,3.52,4.76-1.5-.98-2.89-2.06-4.03-3.36-1.44-1.64-3.29-3.06-3.5-5.52-.03-.29-.56-.72-.88-.74-.33-.02-.83,.29-1,.6-.17,.3-.18,.91,.02,1.16,1.26,1.56,2.43,3.23,3.93,4.52,4.66,4.01,9.46,7.86,14.2,11.78,.23,.19,.37,.46,.56,.7-.43,.1-.68,.03-.89-.1-3.66-2.18-7.23-4.46-10.16-7.63-2.76-3-5.6-5.93-8.44-8.86-.27-.28-.93-.5-1.2-.36-.38,.2-.83,.81-.77,1.17,.06,.39,.63,.75,1.05,1,.59,.35,1.36,.46,1.85,.9,4.26,3.83,8.42,7.78,12.74,11.54,1.38,1.2,3.15,1.96,4.72,2.94,.74,.46,1.61,.89,1.17,2.14-.29-.11-.54-.19-.77-.3-4.52-2.17-8.28-5.31-11.68-8.97-2.05-2.21-4.25-4.3-6.43-6.39-.26-.24-.96-.31-1.27-.13-.32,.18-.6,.8-.53,1.16,.06,.35,.67,.92,.9,.87,1.45-.39,2.15,.69,2.96,1.45,1.44,1.34,2.8,2.76,4.2,4.15,3.78,3.76,7.63,7.43,12.87,9.16,.33,.11,.64,.38,.88,.65,1.73,1.94,3.45,3.9,5.16,5.87,.99,1.13,1.19,2.37,.77,3.85-.59,2.09-1.28,4.22-1.41,6.36-.37,5.83-.46,11.68-.67,17.52-.02,.43-.06,.86-.1,1.3-.16,.02-.33,.04-.49,.06-.14-.56-.39-1.11-.4-1.67-.04-3.14-.02-6.27-.02-9.41-.02-7.34-1.5-14.27-5.91-20.32-3.95-5.41-9.05-9.53-14.78-12.92-5.48-3.24-11.32-5.08-17.79-4.48-.64,.06-1.41-.04-1.96-.35-1.94-1.1-3.91-.36-4.38,1.82-.25,1.14-.42,2.31-.5,3.47-.55,7.44,1.03,14.56,3.96,21.28,3.65,8.37,10.03,14.35,17.87,18.91,5.48,3.19,11.34,5.02,17.61,5.68,.65,.07,1.48,.25,1.86,.69,1.6,1.84,3.08,3.78,4.55,5.73,1.48,1.97,2.02,4.2,1.56,6.63-.54,2.87-2.53,14-3.06,16.87-.14,.79-.15,1.6-.24,2.61,1.21-.31,2.06-.61,2.94-.73,1.4-.18,1.94-.98,2.09-2.31,.22-1.9,1.96-12.05,2.3-13.94,.35-1.99,1.05-3.97,2.76-5.06,2.76-1.74,5.74-3.16,8.65-4.66,.34-.17,1.03-.16,1.29,.07,2.9,2.54,6.43,2.93,10.03,2.92,6.64-.02,12.78-2.01,18.56-5.14,7.48-4.04,12.33-10.76,17.37-17.29,0,0,0,0,0,0,.2-.23,.41-.46,.62-.69,.02-.76,.04-1.52,.06-2.27-.02,.76-.04,1.52-.06,2.27,1.76-2.37,3.53-4.73,5.29-7.1,.03,0,.05-.01,.08-.02h0c.02-.07,.03-.15,.05-.22,.75-1.65,1.75-3.24,2.15-4.98,1.17-5.09-.59-7.65-5.72-8.65-1.66-.32-3.37-.41-5.06-.57-2.08-.19-4.13-1.79-6.26-.18-8.39-.19-16.11,2.41-23.71,5.58-1.24,.52-2.49,.99-3.74,1.48,.06-.53,.25-.79,.5-.91,4.77-2.21,9.44-4.7,14.37-6.5,4.42-1.62,9.13-2.4,13.92-1.26,.35,.08,1.01-.18,1.17-.48,.17-.3,.04-1.01-.22-1.24-.24-.21-.87-.11-1.26,.02-.41,.14-.74,.69-1.13,.72-3.25,.2-6.51,.32-10.16,.48,2.02-.92,3.78-1.69,5.51-2.53,.4-.2,.88-.59,.97-.97,.07-.28-.43-.99-.68-1-.41,0-.88,.35-1.24,.66-.63,.56-1.11,1.35-1.81,1.77-4.77,2.85-9.98,4.67-15.22,6.4-2.4,.79-4.74,1.74-7.1,2.62-.11-.17-.23-.34-.34-.51,.71-.48,1.37-1.08,2.14-1.41,4.58-1.98,9.2-3.89,13.8-5.83,2.18-.92,4.37-1.8,6.53-2.77,.3-.13,.58-.67,.57-1.01-.01-.33-.36-.85-.65-.92-.31-.07-.76,.24-1.06,.49-.74,.61-1.33,1.5-2.16,1.89-5.19,2.43-10.44,4.77-15.67,7.11-.29,.13-.65,.1-1.42,.21,.51-.41,.64-.56,.81-.64,7.35-3.39,14.34-7.4,21.02-11.98,.48-.33,1.27-.16,1.89-.32,.42-.11,1-.29,1.13-.6,.13-.32-.1-1.01-.39-1.19-.27-.18-.91-.04-1.25,.18-.52,.33-.85,.94-1.37,1.28-3.03,1.97-6.06,3.93-9.15,5.82-2.26,1.38-4.6,2.64-6.9,3.95,6.59-4.7,13.24-9.26,19.94-13.75,1.78-1.19,3.71-2.16,5.52-3.31,.31-.2,.5-.78,.52-1.19,0-.24-.47-.73-.69-.7-.4,.04-.87,.3-1.13,.62-.41,.5-.53,1.34-1.02,1.67-8.62,5.75-17.26,11.45-25.93,17.13-1.18,.77-2.49,1.34-3.75,2.01,.1-.54,.36-.77,.66-.96,7.51-4.55,14.6-9.7,21.38-15.29,.36-.29,.97-.25,1.4-.48,.41-.23,1.01-.6,1.03-.93,.02-.39-.43-1.08-.79-1.15-.33-.07-.89,.4-1.2,.76-.36,.41-.43,1.14-.83,1.43-7.23,5.22-14.5,10.4-21.77,15.58-.25,.18-.58,.24-.88,.36,.7-.87,1.53-1.5,2.38-2.1,5.8-4.12,11.61-8.22,17.38-12.37,.33-.24,.56-.9,.5-1.32-.04-.26-.81-.69-1.07-.58-.38,.16-.61,.7-.85,1.11-.31,.52-.44,1.26-.88,1.59-4.16,3.13-8.37,6.2-12.58,9.27-1.25,.91-2.56,1.74-3.85,2.6-.11-.14-.23-.28-.34-.41,.45-.35,.94-.67,1.35-1.07,3.44-3.28,6.66-6.78,8.87-11,1.18-2.25,2.72-4.01,4.69-5.51,1.82-1.38,3.61-2.81,5.46-4.15,.42-.31,1.05-.31,1.57-.5,.48-.18,.94-.43,1.41-.64-.23-.43-.46-.86-.68-1.29-.46,.25-.96,.44-1.36,.76-1.91,1.52-3.79,3.07-5.68,4.61-.12-.15-.24-.3-.37-.45,1.45-1.27,2.92-2.51,4.32-3.82,.35-.33,.6-.91,.6-1.37,0-.23-.69-.45-1.07-.67-.27,.46-.56,.9-.8,1.38-.19,.38-.2,.89-.46,1.19-6,6.89-12.03,13.76-18.05,20.63-.83,.95-1.66,1.91-2.49,2.86-.1-.09-.21-.17-.31-.26,1-1.33,1.99-2.66,2.99-4l.04,.04c-.22-.46-.43-.91-.61-1.28,1.03-.94,2.42-1.5,1.98-3.2,.15-.18,.29-.35,.44-.53,1.01-2.07,2-4.14,3.04-6.19,.54-1.06,1.18-2.08,1.77-3.12,0,0,0-.02,0-.02,1.05-1.02,1.64-2.6,3.57-2.51,.78,.04,1.01-1.14,.37-1.73-.27-.25-.68-.34-1.02-.51,.53-.53,1.1-.64,1.63-.84,.47-.18,1.11-.37,1.29-.74,.13-.27-.37-.84-.59-1.28-.45,.24-.98,.41-1.35,.75-.83,.77-1.58,1.62-2.36,2.44-.13-.12-.26-.24-.38-.36,.81-1.67,1.58-3.35,2.46-4.98,.25-.46,.84-.72,1.19-1.14,.34-.4,.71-.86,.79-1.34,.03-.22-.81-.84-.93-.76-.43,.27-.84,.71-1.05,1.17-1.28,2.84-2.19,5.89-3.82,8.51-3.14,5.04-6.68,9.84-10.06,14.73-.38,.55-.79,1.08-1.19,1.61,.16-.97,.53-1.74,1.01-2.44,3.31-4.87,6.65-9.72,9.94-14.61,.25-.36,.28-.97,.18-1.42-.04-.18-.92-.42-1.01-.3-.32,.4-.5,.93-.65,1.43-.15,.5-.05,1.12-.31,1.53-3.01,4.7-6.07,9.37-9.11,14.05-.24,.36-.5,.7-.76,1.06-.1-.36-.04-.61,.07-.83,4.22-8.36,8.62-16.6,14.73-23.79,.3-.35,.31-1.06,.21-1.55-.04-.19-.97-.46-1.14-.31-.36,.34-.54,.91-.71,1.42-.19,.59-.13,1.33-.46,1.8-5.77,8.13-10.74,16.71-14.76,25.84-.17,.39-.47,.71-.71,1.07-.13-.06-.26-.13-.38-.19,.16-.47,.28-.96,.49-1.41,2-4.34,3.84-8.77,6.08-12.99,1.67-3.15,3.88-6.01,5.79-9.04,.22-.35,.16-1.01-.01-1.42-.1-.24-.86-.48-1.03-.35-.36,.28-.6,.78-.75,1.24-.23,.7-.2,1.52-.53,2.16-2.14,4.09-4.45,8.11-6.51,12.24-1.7,3.4-3.15,6.92-4.72,10.4-2.09-1.58-2.14-1.7-.67-3.75,2.53-3.52,4.61-7.25,5.86-11.43,.33-1.1,.89-2.15,1.47-3.15,1.01-1.73,1.42-3.62,.37-5.3-1.04-1.67-1.08-3.4-1.13-5.18-.04-1.49-.63-3.04,.45-4.47,.15-.2-.2-.97-.52-1.28-.17-.18-.99-.08-1.08,.1-.23,.46-.33,1.06-.25,1.57,.32,2.17,.73,4.34,1.15,6.74l.03,1.76Zm12.64,3.62c.21,.15,.41,.31,.62,.46-.65,.82-1.3,1.63-1.94,2.45-.18-.12-.37-.24-.55-.36,.63-.85,1.25-1.7,1.88-2.55Zm-12.18-2.31c.23,.01,.47,.03,.7,.04-.09,1.38-.17,2.76-.26,4.14-.23-.01-.47-.03-.7-.04,.09-1.38,.18-2.76,.26-4.14Zm35.07,26.82c-8.92,1.03-17.36,4.25-26.2,5.61,7.16-3.66,22.88-7.03,26.2-5.61Zm-31.28,4.22c3.19-1.19,6.37-2.38,9.56-3.56,.06,.14,.13,.27,.19,.41-2.71,1.29-5.41,2.61-8.16,3.83-.42,.19-1.06-.09-1.59-.15,0-.17,0-.35,0-.52Zm9.02-19.15c.12,.1,.25,.21,.37,.31-2.78,5.2-7.09,9.1-11.23,13.15-.1-.09-.2-.17-.3-.26,3.72-4.4,7.45-8.8,11.17-13.2Zm-15.12,13.33c2.62-5.58,6.43-10.4,9.95-15.4-2.37,5.74-5.99,10.68-9.95,15.4Zm.75,4.44c.17-.19,.79-.14,1.07,.02,.18,.1,.27,.76,.13,.94-1.6,1.93-3.26,3.81-5.52,5-.15-.13-.3-.27-.45-.4,1.58-1.86,3.14-3.75,4.77-5.57Zm-2.27,.17c.69-.94,1.26-1.72,1.83-2.5q-.97,3.37-1.83,2.5Zm13.12-24.78c.15,.07,.29,.14,.44,.21-.22,.58-.32,1.24-.66,1.73-1.87,2.63-3.79,5.23-5.72,7.82-.14,.18-.43,.25-.68,.35,2.2-3.37,4.41-6.74,6.62-10.11Zm-6.77,10.32c-.18,.53-.31,1.08-.61,1.53-1.29,1.97-2.65,3.89-3.98,5.84-.13-.09-.26-.17-.39-.26,1.66-2.37,3.32-4.74,4.98-7.1Zm-9.13,2.1c1.6-3.49,2.43-6.89,4.73-9.84,.22,2.1-2.53,7.86-4.73,9.84Zm-2.51,7.5c.93,1.09,.52,4.91-.78,6.41-.8-2.1-.36-5.41,.78-6.41Zm-7.71-34.56c-.64,7.97,.84,15.72,2.64,23.42-1.9,.37-2.5-.28-2.68-1.99-.83-7.81-.94-16.75,.04-21.43Zm2,28.47c-.59,2-1.3,3.96-1.96,5.94-.25-.04-.49-.08-.74-.12,0-.64-.1-1.31,.02-1.93,.26-1.4,.56-2.81,.99-4.17,.12-.39,.77-.61,1.17-.91,.19,.4,.61,.87,.52,1.19Zm-4.88-8.03c.37-7.7,.69-15.4,1.03-23.1,.01-.25,.08-.5,.14-.81,1.24,.19,1.01,1,.99,1.78-.16,6.16-.37,12.31-.4,18.47-.01,2,.48,4.01,.64,6.02,.05,.64-.21,1.31-.35,2.05-2.18-1.14-2.13-2.73-2.05-4.41Zm-3.6-22.44c.76,8.4,1.52,16.8,2.28,25.2-2.12-8.28-2.6-16.71-2.28-25.2Zm-1.43-.24c.6,9.02,.85,18.09,3.17,26.93-2.36-2.53-4.99-20.91-3.17-26.93Zm2.35,35.33c-.55-1.72-1.09-3.44-1.76-5.52,1.93,.79,2.78,3.63,1.76,5.52Zm-6.58-23.21c.74,2.81,1.46,5.62,2.22,8.43,.45,1.64,1,3.25,1.41,4.89,.13,.53-.07,1.14-.29,1.69-2.04-2.95-4.07-11.74-3.34-15Zm-3.83,25.17c9.28,9.22,9.53,20.42,8.86,32.39-.18,.09-.36,.18-.55,.28-.63-1.14-1.12-1.83-1.45-3.05-1.51-5.63-2.49-11.44-4.36-16.95-4.26-12.5-13.78-18.99-26.31-21.32-2.77-.51-4.18-1.8-5.57-4.41,12.08-.13,21.34,5.07,29.38,13.07Zm4.58,30.2c-.48,.08-.67,.17-.83,.12-7.13-2.06-14.09-4.54-19.86-9.39-6.41-5.38-11.53-11.64-12.17-20.48-.13-1.76-.02-3.53-.02-5.29,8.14,14.21,19.44,25.43,32.88,35.04Zm-26.91-36.01c1.75,.02,2.19,.87,1.4,2.95-.45-.94-.89-1.89-1.4-2.95Zm2.69,.71c2.3,.22,2.74,1.14,1.67,3.57-1.58-.9-1.73-1.22-1.67-3.57Zm2.96,1.04c1.93,.73,.8,2.37,1.27,3.95-2.54-1.01-1.11-2.68-1.27-3.95Zm1.92,4.49v-3.9c.62,.5,1.56,.95,1.51,1.27-.14,.95-.65,1.84-1.02,2.76-.16-.04-.33-.08-.49-.12Zm12.62,16.23c2.02-1.14,3.19-.81,3.46,1.05-1.17-.35-2.18-.66-3.46-1.05Zm3.95,2.01c-.07,.2-.14,.4-.21,.61-1.14,.33-2.18,.38-2.72-1.48,1.12,.33,2.02,.6,2.93,.87Zm-4.24-3.3c-.03-.24-.06-.48-.09-.73,1.01-.1,2.01-.2,3.02-.3,.02,.25,.05,.5,.07,.75-1,.09-2,.19-3,.28Zm-1.22-2.68c-.05-.17-.1-.34-.15-.51,1.35-1.39,2.51-1.67,3.25-.56-1.07,.37-2.08,.72-3.1,1.07Zm-1.04-1.04c-.11-.17-.22-.33-.33-.5,1.1-.62,2.2-1.25,3.3-1.87,.11,.21,.23,.41,.34,.62-1.1,.58-2.21,1.17-3.31,1.75Zm-.75-1.64c1.13-.98,1.92-1.65,2.88-2.48,.2,1.23-.65,1.97-2.88,2.48Zm2.24-3.09c-.68,.69-1.53,1.22-2.31,1.81-.1-.38-.41-.9-.26-1.11,.49-.73,1.15-1.35,2.01-2.32,.27,.74,.72,1.47,.57,1.62Zm-3.5,.36c-.17-.17-.33-.34-.5-.52l2.39-2.27c.16,.17,.33,.34,.49,.52-.8,.76-1.6,1.52-2.39,2.27Zm-1.61-2.26q-.88-.75,.31-3.56c.53,.46,1,.87,1.57,1.37-.73,.86-1.3,1.53-1.88,2.2Zm-1.68-.98c-.94-1.74,.22-2.63,.83-3.66,.67,1.34-.11,2.33-.83,3.66Zm-1.3-1.72c-.14-.04-.27-.07-.41-.11,.21-.98,.42-1.96,.64-2.98,1.19,.58,1.12,1.18-.23,3.09Zm-1.07-.52c-1.24-.99-1.05-2.04,.69-3.35-.22,1.07-.44,2.14-.69,3.35Zm18.55,33.71c-1.76-.67-3.71-.87-5.59-1.19-10.04-1.74-18.25-6.75-25.05-14.16-6.97-7.59-9.29-16.89-9.49-26.89-.03-1.73,.17-3.5,.49-5.2,.1-.56,.92-.98,1.41-1.46,.44,.48,1.06,.89,1.29,1.46,.59,1.47,1.05,3,1.47,4.53,.15,.54,.12,1.16,.03,1.72-1.57,9.6,1.88,17.38,8.53,24.08,6.88,6.92,15.46,10.54,24.72,12.81,2.06,.51,3.64,1.36,5,3.04,2.42,2.98-.05,2.32-2.8,1.27Zm11.38-26.68c0-.47,.16-.94,.25-1.41,.2,.04,.39,.09,.59,.13,1.12,2.12,.86,4.12-.93,6.44,.08-.8,.14-1.15,.14-1.5,0-1.22-.07-2.44-.05-3.66Zm-2.92,6.94c-.1-2.4,.43-4.21,1.86-5.84,.82,1.9,.27,3.74-1.86,5.84Zm5.61,24.21c-1.29,.5-1.91,.29-2.08-1.13-.58-4.85-1.1-9.71-1.63-14.57-.16-1.45,.25-2.72,1.31-3.78,.68-.67,1.27-1.43,1.9-2.15,1.38-1.58,2.53-3.06,5.24-2.58,1.68,.3,3.63-.91,5.45-1.46,1.14-.35,2.27-.74,3.8-1.24-1.64,2.33-3.05,4.18-4.29,6.13-2.57,4.06-4.03,8.54-4.69,13.27-.46,3.33-1.55,6.17-5.01,7.51Zm54.25-21.31c-2.85,3.83-5.67,7.69-8.81,11.26-5.27,6.01-11.82,10.17-19.61,12.17-2.46,.63-4.32,.94-6.04,1.25-3.88-.24-6.94-.54-9.41-2.53-2.42-1.95-2.07-4.05,.58-5.66,2.31-1.4,4.79-2.52,7.2-3.76,10.06-5.18,19.22-10.15,29.29-15.31,.94-.48,1.94-1,2.95-1.1,.99-.1,2.13,.12,3.03,.56,1.5,.73,1.81,1.77,.81,3.12Zm-2.29-9.04c.72-.47,1.43-.94,2.15-1.42,0,0,0,0,0,0-.72,.47-1.43,.94-2.15,1.42Zm2.56-2.82c-.79,.96-1.67,1.85-2.51,2.77-9.27,5.4-18.51,10.86-27.83,16.18-4.8,2.74-9.72,5.26-14.63,7.79-.6,.31-1.66,.4-2.15,.07-.51-.34-.92-1.39-.8-2.02,1.39-7.36,4.47-13.8,10.37-18.69,.86-.71,1.54-.85,2.52-.18,3.54,2.41,7.72,2.06,11.7,2.52,1.51,.18,3.02,.33,4.53,.41,.34,.02,.86-.22,1.02-.5,.17-.29,.16-.94-.05-1.13-.28-.25-1.06-.42-1.22-.25-1.01,1.08-2.27,.78-3.45,.7-2.7-.18-5.43-.27-8.08-.75-1.75-.32-3.4-1.24-5.09-1.89,.04-.22,.08-.45,.13-.67,.51-.06,1.01-.19,1.52-.18,4.57,.12,9.13,.26,13.7,.43,.72,.03,1.43,.34,2.16,.39,.45,.03,1.16-.03,1.33-.31,.2-.33,.1-1.09-.18-1.37-.22-.23-.9-.09-1.36,0-.67,.15-1.32,.58-1.98,.58-3.82,.01-7.65-.06-11.47-.13-.57-.01-1.13-.18-1.8-.61,.42-.17,.82-.44,1.25-.5,5.35-.76,10.71-1.47,16.06-2.25,3.1-.45,6.18-1.04,9.28-1.48,.74-.11,1.53,.2,2.29,.2,.41,0,1.02-.13,1.17-.4,.18-.31,.09-1.09-.14-1.24-.33-.21-.93-.11-1.38,0-.68,.18-1.3,.61-1.98,.73-5.6,.99-11.2,1.95-16.81,2.9-2.29,.39-4.59,.74-6.89,1.11-.06-.12-.12-.25-.19-.37,.34-.21,.65-.52,1.02-.62,4.03-1.16,8.03-2.39,12.1-3.39,4.07-1,8.18-1.84,12.31-2.56,1.36-.24,2.9-.1,4.24,.26,2.31,.62,2.81,2.58,1.29,4.43Zm1.55,3.49h0c.19,.64,.38,1.28,.58,1.93-.2-.66-.39-1.29-.58-1.93Z" fill="#2e503b"/><path d="M126.45,73.46c-2.57,3.45-5.12,6.93-7.95,10.16-4.76,5.42-10.66,9.17-17.69,10.98-2.21,.57-3.9,.85-5.45,1.13-3.5-.22-6.26-.48-8.49-2.29-2.18-1.76-1.87-3.66,.53-5.11,2.09-1.26,4.32-2.27,6.49-3.39,9.07-4.67,17.34-9.16,26.42-13.81,.84-.43,1.75-.9,2.66-.99,.9-.09,1.92,.11,2.74,.51,1.35,.66,1.64,1.6,.73,2.81Z" fill="#2e503b"/><path d="M56.88,82.17c-.44,.07-.61,.15-.75,.11-6.48-1.88-11.76-4.34-17.01-8.76-5.83-4.91-10.89-11.26-12.13-18.48-.27-1.58-.03-2.62-.03-4.23,7.4,12.96,18.06,23.34,29.92,31.35Z" fill="#2e503b"/><path d="M21.44,43.27s.29-2.56,.88-2.49,2.34,3.29,2.27,5.04c-.07,1.75-3.44,14.11,6.87,24.78,10.31,10.67,21.85,13.38,28.72,15.42l1.02,1.53s-8.7-1.24-13.08-2.92c-4.39-1.68-17.91-6.43-25.29-25.65,0,0-2.27-8.99-1.39-15.71Z" fill="#2e503b"/><path d="M53.31,52.67c8.42,8.37,10.18,20.22,9.57,31.09-.17,.08-.33,.17-.5,.25-.57-1.04-.43-1.82-.6-2.96-.82-5.45-2.83-11.89-4.53-16.88-3.87-11.35-14.06-18.35-25.44-20.47-2.51-.47-3.93-.53-5.19-2.9,10.97-.12,19.37,4.61,26.68,11.87Z" fill="#2e503b"/><path d="M93.21,66.88s-8.53,5.89-10.52,17.54c0,0-.58,1.46,2.63,.22,3.22-1.24,28.36-15.64,28.36-15.64l13.08-7.46s4.31-3.8,1.68-4.82c-2.63-1.02-2.74-1.1-24.41,3.73,0,0,21.63-4.82,22.44-3.58,.8,1.24-.51,3.22-1.24,3.29s-2.78-.37-3.51-.22-20.9,2.7-20.9,2.7c0,0,12.43-.66,12.72,.37,.29,1.02,.8,2.34-.51,2.7s-17.03-.88-17.03-.88c0,0,2.63,1.17,4.24,1.32s6.55,.41,8.33,.58c1.78,.17,2.34-.88,3.29-.44s1.24,1.83,.51,2.41-1.75,1.02-3.73,.95c-1.97-.07-13.16-.37-15.42-2.78Z" fill="#2e503b" fill-rule="evenodd"/></g><g><path d="M116.49,141.78c.02,.33,.03,.68,.03,1.03,0,.28-.1,.52-.49,.52-.71,0-.42-1.41-1.67-2.05-.52-.26-1.01-.26-1.82-.26-.19,0-.23,.09-.23,.23v8.23c0,.82,.03,1.39,.19,1.72,.31,.64,.9,.61,.9,.97,0,.24-.23,.33-.49,.33h-2.97c-.26,0-.47-.09-.47-.33,0-.42,.62-.31,.92-1.01,.12-.3,.16-.87,.16-1.69v-8.23c0-.12-.04-.23-.23-.23-1.02,0-1.42,.03-1.96,.35-1.04,.61-.8,1.97-1.51,1.97-.29,0-.47-.16-.47-.52,0-.4,.02-.71,.03-1.03,.02-.35,0-.83,.04-1.32,.02-.35,.21-.5,.73-.5s1.44,.12,2.97,.12h2.57c1.54,0,2.46-.12,2.98-.12,.42,0,.68,.09,.71,.5,.04,.45,.04,.89,.05,1.32Z" fill="#2e503b"/><path d="M123.63,150.62c0,.49-1.32,2.07-3.63,2.07-2.65,0-4.22-2.09-4.22-4.47,0-2.54,1.8-4.99,4.49-4.99,2.5,0,3.54,2.04,3.54,3.25,0,1.06-.52,1.22-1.37,1.24h-4.7c-.12,0-.19,.05-.19,.17v.09c0,1.83,1.04,3.46,2.88,3.46,1.7,0,2.39-1.18,2.81-1.18,.21,0,.38,.12,.38,.37Zm-6-3.88c0,.09,.03,.1,.14,.1h2.83c1.01,0,1.46-.21,1.46-1.01s-.69-1.76-1.93-1.76c-1.39,0-2.27,1.18-2.48,2.47-.02,.14-.02,.17-.02,.19Z" fill="#2e503b"/><path d="M133.82,149.43c0,.9,.05,1.57,.26,1.9,.29,.45,.85,.52,.85,.83,0,.24-.23,.33-.49,.33h-2.92c-.26,0-.49-.09-.49-.33,0-.35,.59-.37,.87-.9,.17-.33,.23-.96,.23-1.83v-2.71c0-1.51-.8-2.17-1.82-2.17-.52,0-1.08,.19-1.49,.61-.66,.66-.82,1.6-.82,4.28,0,.89,.05,1.53,.24,1.86,.29,.5,.85,.56,.85,.87,0,.24-.21,.33-.47,.33h-2.88c-.26,0-.47-.09-.47-.33,0-.37,.62-.38,.88-.94,.16-.35,.21-.94,.21-1.79v-3.39c0-.56-.02-.87-.17-1.1-.28-.42-1.01-.33-1.01-.71,0-.19,.09-.31,.49-.4,.64-.14,1.16-.31,1.61-.52,.12-.05,.23-.09,.33-.09,.23,0,.38,.16,.38,.49v1.03c0,.05,.02,.09,.05,.09s.05-.03,.09-.09c.54-.8,1.51-1.51,2.81-1.51,.99,0,1.8,.43,2.27,1.08,.38,.52,.59,1.15,.59,2.37v2.77Z" fill="#2e503b"/><path d="M142.21,150.96c0,.26-.26,.66-.62,.97-.47,.42-1.16,.75-1.98,.75s-1.47-.35-1.89-.92c-.35-.47-.49-1.18-.49-2.07,0-1.53,.12-3.1,.12-4.82,0-.12-.05-.17-.17-.17h-1.09c-.12,0-.19-.07-.19-.21v-.56c0-.1,.05-.17,.17-.21,.76-.21,1.14-.45,1.35-.8,.21-.35,.28-.82,.4-1.39,.03-.14,.09-.21,.23-.21h.71c.14,0,.21,.07,.21,.19v1.81c0,.31,.07,.4,.38,.4,.26,0,.49,0,.88-.03,.36-.03,.85-.09,1.21-.09s.55,.09,.55,.31c0,.09-.03,.21-.05,.33-.07,.42-.29,.54-.75,.54-.31,0-.69-.05-1.11-.07-.35-.02-.62-.02-.94-.02-.14,0-.21,.07-.21,.21,0,.23-.05,2.14-.05,2.66,0,.64,0,1.22,.07,2.02,.12,1.37,.69,1.76,1.37,1.76,.9,0,1.23-.68,1.56-.68,.17,0,.31,.12,.31,.3Z" fill="#2e503b"/><g><path d="M4.08,147.29h-1.06c-.14,0-.19,.1-.19,.23v1.91c0,.83,.03,1.41,.19,1.74,.31,.66,.9,.59,.9,.97,0,.24-.21,.33-.49,.33H.49c-.26,0-.49-.09-.49-.33,0-.37,.66-.38,.9-.97,.16-.38,.19-.97,.19-1.74v-6.94c0-1.06-.02-1.37-.49-1.65-.23-.14-.5-.19-.5-.47,0-.17,.16-.31,.47-.31H3.71c1.86,0,3.5,0,4.63,1.13,.62,.64,.88,1.48,.88,2.3,0,.63-.16,1.25-.42,1.72-.78,1.39-2.29,2.09-4.74,2.09Zm3.28-3.67c0-.57-.14-1.15-.45-1.58-.64-.9-1.65-1.08-2.95-1.08h-.8c-.24,0-.33,.12-.33,.33v4.84c0,.17,.07,.24,.28,.24h.75c1.89-.03,3.5-.56,3.5-2.75Z" fill="#2e503b"/><path d="M18.75,147.88c0,2.61-1.82,4.78-4.41,4.78s-4.42-1.83-4.42-4.66c0-2.63,1.84-4.8,4.48-4.8s4.35,2.05,4.35,4.68Zm-7.06-7.67c0-.12,.07-.16,.16-.16h5.01c.07,0,.16,.02,.16,.16v.66c0,.14-.09,.16-.16,.16h-5.01c-.09,0-.16-.02-.16-.16v-.66Zm2.46,3.86c-1.53,0-2.46,1.36-2.46,3.29,0,2.4,1.13,4.4,2.83,4.4s2.46-1.67,2.46-3.37c0-2-.88-4.31-2.83-4.31Z" fill="#2e503b"/><path d="M28.72,149.41c0,.9,.05,1.57,.26,1.9,.29,.45,.85,.52,.85,.83,0,.24-.23,.33-.49,.33h-2.91c-.26,0-.49-.09-.49-.33,0-.35,.59-.37,.87-.9,.17-.33,.23-.96,.23-1.83v-2.71c0-1.53-.8-2.17-1.82-2.17-.52,0-1.08,.19-1.49,.61-.66,.66-.82,1.6-.82,4.28,0,.89,.05,1.53,.24,1.86,.29,.5,.85,.56,.85,.87,0,.24-.21,.33-.47,.33h-2.88c-.26,0-.47-.09-.47-.33,0-.37,.62-.38,.88-.94,.16-.35,.21-.94,.21-1.79v-7.13c0-.56-.02-.87-.17-1.1-.28-.42-1.01-.33-1.01-.71,0-.19,.09-.31,.49-.4,.64-.14,1.16-.31,1.61-.52,.12-.05,.23-.09,.33-.09,.22,0,.38,.16,.38,.49v4.77c0,.05,.02,.09,.05,.09s.05-.03,.09-.09c.54-.8,1.51-1.51,2.81-1.51,.99,0,1.8,.42,2.27,1.08,.38,.52,.59,1.15,.59,2.37v2.77Z" fill="#2e503b"/><path d="M40.55,151.69c0,.21-.12,.33-.47,.4-.68,.16-1.16,.31-1.6,.49-.17,.07-.28,.09-.36,.09-.24,0-.38-.14-.38-.47v-1.08s-.02-.05-.05-.05-.05,.03-.09,.09c-.57,.89-1.6,1.51-2.81,1.51-.87,0-1.63-.31-2.17-.97-.49-.59-.64-1.41-.64-2.45v-2.92c0-.75,0-1.15-.17-1.41-.28-.43-.99-.31-.99-.77,0-.17,.12-.3,.47-.37,.69-.16,1.09-.28,1.56-.47,.17-.07,.26-.1,.4-.1,.23,0,.38,.14,.38,.45v5.55c0,1.2,.55,2.14,1.8,2.14,.5,0,1.04-.17,1.46-.59,.64-.64,.85-1.62,.85-4.28,0-.83,0-1.3-.17-1.57-.29-.43-.99-.31-.99-.73,0-.19,.09-.31,.47-.4,.68-.16,1.16-.3,1.63-.5,.12-.05,.23-.09,.33-.09,.23,0,.38,.16,.38,.47v5.9c0,.75,0,1.15,.17,1.43,.24,.38,.99,.31,.99,.71Z" fill="#2e503b"/><path d="M47.94,150.94c0,.26-.26,.66-.62,.97-.47,.42-1.16,.75-1.98,.75s-1.47-.35-1.89-.92c-.35-.47-.49-1.18-.49-2.07,0-1.53,.12-3.1,.12-4.82,0-.12-.05-.17-.17-.17h-1.09c-.12,0-.19-.07-.19-.21v-.56c0-.1,.05-.17,.17-.21,.76-.21,1.14-.45,1.35-.8,.21-.35,.28-.82,.4-1.39,.03-.14,.09-.21,.23-.21h.71c.14,0,.21,.07,.21,.19v1.81c0,.31,.07,.4,.38,.4,.26,0,.49,0,.88-.03,.36-.03,.85-.09,1.21-.09s.55,.09,.55,.31c0,.09-.03,.21-.05,.33-.07,.42-.29,.54-.75,.54-.31,0-.69-.05-1.11-.07-.35-.02-.62-.02-.94-.02-.14,0-.21,.07-.21,.21,0,.23-.05,2.14-.05,2.66,0,.64,0,1.22,.07,2.02,.12,1.37,.69,1.76,1.37,1.76,.9,0,1.23-.68,1.56-.68,.17,0,.31,.12,.31,.3Z" fill="#2e503b"/><path d="M58.68,151.69c0,.21-.12,.33-.47,.4-.68,.16-1.16,.31-1.6,.49-.17,.07-.28,.09-.36,.09-.24,0-.38-.14-.38-.47v-1.08s-.02-.05-.05-.05-.05,.03-.09,.09c-.57,.89-1.6,1.51-2.81,1.51-.87,0-1.63-.31-2.17-.97-.49-.59-.64-1.41-.64-2.45v-2.92c0-.75,0-1.15-.17-1.41-.28-.43-.99-.31-.99-.77,0-.17,.12-.3,.47-.37,.69-.16,1.09-.28,1.56-.47,.17-.07,.26-.1,.4-.1,.23,0,.38,.14,.38,.45v5.55c0,1.2,.55,2.14,1.8,2.14,.5,0,1.04-.17,1.46-.59,.64-.64,.85-1.62,.85-4.28,0-.83,0-1.3-.17-1.57-.29-.43-.99-.31-.99-.73,0-.19,.09-.31,.47-.4,.68-.16,1.16-.3,1.63-.5,.12-.05,.23-.09,.33-.09,.23,0,.38,.16,.38,.47v5.9c0,.75,0,1.15,.17,1.43,.24,.38,.99,.31,.99,.71Z" fill="#2e503b"/><path d="M69.72,152.14c0,.17-.16,.33-.47,.33h-1.14c-.42,0-.73-.05-1.04-.28-.43-.31-.83-1.01-1.72-2.3-.82-1.18-1.13-1.64-1.46-1.64-.14,0-.29,.14-.47,.3l-.47,.43c-.05,.05-.07,.1-.07,.19v.19c0,.85,0,1.48,.21,1.84,.35,.61,.88,.52,.88,.92,0,.24-.21,.33-.49,.33h-2.95c-.28,0-.49-.09-.49-.33,0-.38,.61-.37,.9-.96,.19-.37,.21-.99,.21-1.83v-7.22c0-.45-.02-.71-.17-.94-.12-.17-.31-.28-.57-.37-.26-.09-.43-.17-.43-.37s.07-.31,.5-.4c.62-.12,1.14-.26,1.68-.5,.12-.05,.23-.09,.33-.09,.23,0,.38,.12,.38,.45v7.72c0,.07,.04,.09,.05,.09,.04,0,.05-.02,.09-.05,.56-.49,1.42-1.27,1.84-1.67,.64-.63,1.15-1.13,1.15-1.5,0-.44-.56-.38-.56-.78,0-.26,.21-.35,.54-.35h2.98c.31,0,.45,.1,.45,.31,0,.31-.38,.38-.75,.54-1.08,.45-2.06,1.36-3.76,2.94-.04,.03-.07,.07-.07,.12s.05,.09,.09,.09c.1,0,.16-.09,.31-.09,.5,0,1.08,.85,1.86,2.02,1.23,1.81,1.63,2.19,2.17,2.42,.24,.1,.45,.19,.45,.4Z" fill="#2e503b"/><path d="M78.27,151.41c.16,0,.29,.1,.29,.28,0,.33-.54,.97-1.3,.97-.57,0-1.21-.35-1.32-1.37,0-.03,0-.09-.03-.09s-.04,.02-.07,.07c-.62,.94-1.7,1.39-2.78,1.39-1.68,0-2.71-1.04-2.71-2.24,0-.7,.35-1.43,1.08-1.9,.9-.61,1.98-.8,2.93-1.25,.69-.31,1.46-.82,1.46-1.76,0-.83-.57-1.43-1.51-1.43-1.04,0-1.58,.68-2.01,1.29-.35,.49-.4,.8-.78,.8-.42,0-.49-.4-.49-.85s.09-1.01,.29-1.27c.47-.61,1.87-.85,2.86-.85,2.22,0,3.37,1.25,3.37,2.97,0,1.36-.05,2.96-.05,4.35,0,.61,.21,.89,.56,.89h.21Zm-2.45-3.84s-.02-.07-.05-.07-.05,.02-.12,.07c-.61,.47-1.75,.77-2.58,1.32-.62,.42-.87,.96-.87,1.44,0,.7,.47,1.32,1.39,1.32,.68,0,1.46-.38,1.87-1.23,.35-.73,.36-1.5,.36-2.56v-.3Z" fill="#2e503b"/><path d="M93.56,144.54c-.45,.45-.71,1.04-.97,1.76l-2.22,6.16c-.04,.1-.09,.14-.21,.14h-1.02c-.1,0-.16-.03-.19-.12l-2.34-6.91c-.02-.05-.04-.07-.05-.07-.03,0-.05,.02-.07,.07l-2.55,6.87c-.05,.12-.1,.16-.23,.16h-1.01c-.16,0-.23-.03-.26-.16l-1.93-6.47c-.21-.7-.45-1.3-.75-1.58-.31-.31-.8-.31-.8-.66,0-.28,.23-.33,.55-.33h2.85c.29,0,.47,.1,.47,.31,0,.43-.8,.28-.8,1.11,0,.26,.07,.61,.23,1.15l1.32,4.47c.02,.05,.04,.09,.07,.09s.05-.03,.07-.09l2.6-7.05c.04-.09,.09-.12,.19-.12h.94c.12,0,.16,.03,.19,.12l2.39,7.05c.02,.05,.04,.1,.07,.1s.05-.05,.07-.1c.17-.47,.69-1.98,1.08-3.13,.36-1.11,.57-1.81,.57-2.3,0-.99-.88-.82-.88-1.3,0-.23,.23-.31,.54-.31h2.45c.36,0,.52,.1,.52,.31,0,.33-.42,.35-.88,.83Z" fill="#2e503b"/><path d="M102.55,151.41c.16,0,.29,.1,.29,.28,0,.33-.54,.97-1.3,.97-.57,0-1.21-.35-1.32-1.37,0-.03,0-.09-.03-.09s-.04,.02-.07,.07c-.62,.94-1.7,1.39-2.78,1.39-1.68,0-2.71-1.04-2.71-2.24,0-.7,.35-1.43,1.08-1.9,.9-.61,1.98-.8,2.93-1.25,.69-.31,1.46-.82,1.46-1.76,0-.83-.57-1.43-1.51-1.43-1.04,0-1.58,.68-2.01,1.29-.35,.49-.4,.8-.78,.8-.42,0-.49-.4-.49-.85s.09-1.01,.29-1.27c.47-.61,1.87-.85,2.86-.85,2.22,0,3.37,1.25,3.37,2.97,0,1.36-.05,2.96-.05,4.35,0,.61,.21,.89,.56,.89h.21Zm-2.45-3.84s-.02-.07-.05-.07-.05,.02-.12,.07c-.61,.47-1.75,.77-2.58,1.32-.62,.42-.87,.96-.87,1.44,0,.7,.47,1.32,1.39,1.32,.68,0,1.46-.38,1.87-1.23,.35-.73,.36-1.5,.36-2.56v-.3Z" fill="#2e503b"/></g></g></g></g></svg>