<?xml version="1.0" encoding="UTF-8"?><svg id="b" xmlns="http://www.w3.org/2000/svg" width="150.06" height="195.68" viewBox="0 0 150.06 195.68"><g id="c"><g><g><path d="M54.49,32.94c.05-1,.39-2.14,.98-2.96,.46-.65,1.08-1.13,1.85-1.09,1.03,.05,1.45,.89,1.45,1.86l-.72,.07c-.02-.54-.15-1.25-.81-1.28-1.28-.06-1.99,2.36-2.04,3.37-.04,.78,.18,1.52,.82,1.55s1.19-.6,1.5-1.35l-1.27-.06,.15-.6,2.01,.1-.05,.22c-.37,1.44-1.33,2.39-2.44,2.33-.91-.05-1.5-.82-1.43-2.17Z" fill="#2e503b"/><path d="M62.04,29.23l.68,.03-1.45,5.43,1.98,.1-.16,.6-2.66-.13,1.61-6.04Z" fill="#2e503b"/><path d="M68.08,29.52l1.02,.05-.28,6.1-.68-.03,.13-2.47-1.25-.06-1.2,2.42-.73-.04,2.99-5.97Zm-.8,3.02l1.03,.05,.15-2.42h0s-1.16,2.37-1.16,2.37Z" fill="#2e503b"/><path d="M73,29.77l.61,.03,.79,2.05,1.86-1.92,.69,.03-1.61,6.04-.68-.03,1.29-4.86-1.59,1.65h-.29s-.7-1.81-.7-1.81l-1.3,4.89-.68-.03,1.61-6.04Z" fill="#2e503b"/><path d="M80.02,30.11l1.65,.08c.72,.04,1.22,.52,1.18,1.32-.02,.34-.17,.8-.6,1.11-.32,.23-.76,.33-1.18,.31l-1.1-.05-.88,3.31-.69-.03,1.61-6.04Zm.12,2.16l1.02,.05c.59,.03,.96-.35,.98-.82,.02-.41-.27-.68-.67-.7l-.93-.05-.4,1.51Z" fill="#2e503b"/><path d="M85.75,30.4l.69,.03-1.61,6.04-.69-.03,1.61-6.04Z" fill="#2e503b"/><path d="M89.51,30.58l.68,.03,.95,4.82,1.25-4.71,.69,.03-1.61,6.04-.73-.04-.94-4.73-1.22,4.62-.69-.03,1.61-6.04Z" fill="#2e503b"/><path d="M94.88,34.94c.05-1,.39-2.14,.98-2.96,.46-.65,1.07-1.13,1.85-1.09,1.03,.05,1.45,.89,1.45,1.86l-.72,.07c-.02-.54-.15-1.25-.81-1.28-1.28-.06-1.99,2.36-2.04,3.37-.04,.78,.18,1.52,.82,1.55s1.19-.6,1.5-1.35l-1.27-.06,.15-.6,2.01,.1-.05,.22c-.37,1.44-1.33,2.39-2.44,2.33-.91-.05-1.5-.82-1.43-2.17Z" fill="#2e503b"/></g><g><path d="M54.17,164.87l-.76,2.85,2.09,.1-.17,.61-2.77-.14,1.6-6.04,2.76,.14-.16,.61-2.07-.1-.36,1.35,1.88,.09-.16,.61-1.88-.09Z" fill="#2e503b"/><path d="M60.67,166.82c.02-.41-.13-.76-.48-1.02l-.43-.32c-.36-.27-.65-.65-.62-1.28,.05-1.06,.93-1.75,1.77-1.7s1.18,.66,1.15,1.34c0,.14-.05,.35-.07,.43l-.63-.07c.01-.07,.04-.2,.04-.33,.02-.45-.19-.72-.56-.74-.52-.03-.97,.46-1,1.01-.02,.36,.14,.63,.39,.82l.46,.35c.48,.35,.72,.89,.69,1.49-.05,1.08-.94,1.95-1.92,1.9-.79-.04-1.34-.53-1.28-1.74,0-.12,.01-.26,.04-.41h.69c-.01,.06-.04,.22-.04,.36-.04,.71,.16,1.13,.67,1.15s1.12-.54,1.15-1.25Z" fill="#2e503b"/><path d="M63.94,166.86c.05-1.03,.4-2.16,.99-2.98,.48-.66,1.08-1.13,1.84-1.09,.91,.04,1.5,.77,1.43,1.91l-.71,.03c.03-.65-.18-1.25-.79-1.28-1.29-.06-1.99,2.37-2.04,3.39-.04,.79,.15,1.5,.81,1.53s1.29-.71,1.67-1.83l.68,.2c-.68,1.85-1.57,2.32-2.43,2.27-.93-.05-1.51-.78-1.44-2.14Z" fill="#2e503b"/><path d="M72.24,163.16l1.02,.05-.28,6.1-.68-.03,.13-2.47-1.25-.06-1.2,2.42-.73-.04,2.99-5.97Zm-.8,3.02l1.03,.05,.15-2.42h0s-1.16,2.37-1.16,2.37Z" fill="#2e503b"/><path d="M77.16,163.4l1.65,.08c.72,.04,1.22,.52,1.18,1.32-.02,.34-.17,.8-.6,1.11-.32,.23-.76,.33-1.18,.31l-1.1-.05-.88,3.31-.69-.03,1.61-6.04Zm.12,2.16l1.02,.05c.59,.03,.96-.35,.98-.82,.02-.41-.27-.68-.67-.7l-.93-.05-.4,1.51Z" fill="#2e503b"/><path d="M82.9,166.29l-.76,2.85,2.09,.1-.17,.61-2.77-.14,1.6-6.04,2.76,.14-.16,.61-2.07-.1-.36,1.35,1.88,.09-.16,.61-1.88-.09Z" fill="#2e503b"/><path d="M89.41,168.24c.02-.41-.13-.76-.48-1.02l-.43-.32c-.36-.27-.65-.65-.62-1.28,.05-1.06,.93-1.75,1.77-1.7s1.18,.66,1.15,1.34c0,.14-.05,.35-.07,.43l-.63-.07c.01-.07,.04-.2,.04-.33,.02-.45-.19-.72-.56-.74-.52-.03-.97,.46-1,1.01-.02,.36,.14,.63,.39,.82l.46,.35c.48,.35,.72,.89,.69,1.49-.05,1.08-.94,1.95-1.92,1.9-.79-.04-1.34-.53-1.28-1.74,0-.12,.01-.26,.04-.41h.69c-.01,.06-.04,.22-.04,.36-.04,.71,.16,1.13,.67,1.15s1.12-.54,1.15-1.25Z" fill="#2e503b"/></g><path d="M70.2,195.61C28.92,193.57-2.5,148.05,.16,94.14,2.82,40.23,38.57-1.97,79.86,.07c41.29,2.04,72.71,47.55,70.05,101.46-2.66,53.91-38.42,96.11-79.7,94.07ZM79.78,1.68C39.38-.31,4.39,41.2,1.77,94.22c-2.62,53.02,28.12,97.78,68.51,99.77,40.4,1.99,75.39-39.52,78.01-92.54C150.91,48.43,120.17,3.68,79.78,1.68Z" fill="#2e503b"/><path d="M70.59,187.85c-37.47-1.85-65.96-43.74-63.51-93.37S42.01,5.97,79.47,7.82s65.96,43.74,63.51,93.37c-2.45,49.63-34.93,88.51-72.4,86.66ZM79.43,10.19C42.77,8.38,10.95,45.74,8.54,94.56c-2.41,48.82,25.5,89.29,62.16,91.1,36.66,1.81,68.41-35.72,70.82-84.54,2.41-48.82-25.43-89.12-62.09-90.93Z" fill="#2e503b"/><g><path d="M38.17,51.89l1.81,.09-1.06,9.46h.04s3.39-6.65,3.39-6.65l1.3,.06,.04,6.87h.04s4.08-9.37,4.08-9.37l1.87,.09-5.5,12.49-2.03-.1v-6.38s-3.26,6.22-3.26,6.22l-2.1-.1,1.38-12.69Z" fill="#2e503b"/><path d="M48.19,65.15l3.36-12.59,1.9,.09-1.15,4.3,4.03,.2,1.15-4.3,1.9,.09-3.36,12.59-1.9-.09,1.76-6.64-4.03-.2-1.76,6.64-1.9-.09Z" fill="#2e503b"/><path d="M62.31,58.96l-1.35,5.15,4.26,.21-.45,1.65-6.17-.3,3.34-12.59,6.13,.3-.45,1.65-4.21-.21-.65,2.48,3.86,.19-.43,1.66-3.88-.19Z" fill="#2e503b"/><path d="M70.08,53.47l3.26,.16c1.67,.08,2.81,1.14,2.72,2.94-.05,.95-.47,1.78-1.35,2.41-.42,.29-.87,.5-1.33,.63l.87,6.82-1.87-.09-.85-6.62-1.21-.06-1.71,6.5-1.89-.09,3.36-12.59Zm.67,4.57l1.56,.08c.9,.04,1.75-.51,1.8-1.53,.04-.82-.47-1.3-1.26-1.34l-1.33-.07-.76,2.86Z" fill="#2e503b"/><path d="M79.35,59.8l-1.36,5.15,4.26,.21-.45,1.65-6.17-.3,3.34-12.59,6.13,.3-.45,1.65-4.21-.21-.65,2.48,3.86,.19-.43,1.66-3.88-.19Z" fill="#2e503b"/><path d="M89.64,54.44l7.52,.37-.45,1.67-2.78-.14-2.91,10.92-1.92-.09,2.91-10.92-2.82-.14,.45-1.67Z" fill="#2e503b"/><path d="M98.72,54.88l1.9,.09-3.36,12.59-1.9-.09,3.36-12.59Z" fill="#2e503b"/><path d="M103.2,55.11l1.76,.09,1.51,4.05,3.66-3.79,1.96,.1-3.36,12.59-1.89-.09,2.55-9.55-2.96,3.13-.84-.04-1.3-3.4-2.55,9.61-1.89-.09,3.36-12.59Z" fill="#2e503b"/><path d="M114.99,61.56l-1.36,5.15,4.26,.21-.45,1.65-6.17-.3,3.34-12.59,6.13,.3-.45,1.65-4.21-.21-.65,2.48,3.86,.19-.43,1.65-3.88-.19Z" fill="#2e503b"/><path d="M44.27,86.88c.04-.8-.31-1.49-1.04-2.04l-.9-.66c-.83-.62-1.4-1.42-1.33-2.74,.11-2.25,2-3.66,3.9-3.56,1.83,.09,2.72,1.41,2.64,2.94-.01,.27-.09,.69-.14,.89l-1.7-.16c.03-.14,.07-.38,.08-.62,.04-.82-.38-1.29-1.09-1.33-.93-.05-1.76,.77-1.81,1.71-.03,.67,.26,1.14,.79,1.55l.97,.72c1.08,.78,1.59,1.97,1.53,3.3-.11,2.33-1.98,4.08-4.2,3.97-1.87-.09-3.04-1.24-2.91-3.77,.01-.25,.03-.55,.08-.85l1.85-.02c-.03,.15-.1,.52-.12,.83-.06,1.29,.32,2.04,1.27,2.09,1.02,.05,2.05-.96,2.11-2.25Z" fill="#2e503b"/><path d="M48.99,78.27l7.52,.37-.45,1.67-2.78-.14-2.91,10.92-1.92-.1,2.91-10.92-2.82-.14,.45-1.67Z" fill="#2e503b"/><path d="M54.94,87c.11-2.27,.87-4.66,2.15-6.29,1-1.26,2.27-2.13,3.86-2.05,2.12,.1,3.42,1.79,3.28,4.59-.11,2.31-.88,4.71-2.17,6.4-.94,1.17-2.16,2.08-3.86,2-1.98-.1-3.4-1.75-3.26-4.64Zm7.32-3.7c.07-1.47-.34-2.82-1.53-2.88-2.4-.12-3.72,4.34-3.83,6.55-.08,1.6,.37,2.86,1.54,2.92,2.4,.12,3.7-4.28,3.81-6.59Z" fill="#2e503b"/><path d="M67.51,79.18l3.71,.18c1.57,.08,2.75,1.17,2.66,2.94-.04,.84-.42,1.8-1.37,2.47-.72,.51-1.74,.73-2.68,.69l-2.05-.1-1.73,6.51-1.9-.09,3.36-12.59Zm.71,4.52l1.87,.09c1.1,.05,1.79-.64,1.84-1.49,.04-.75-.49-1.25-1.26-1.28l-1.7-.08-.74,2.77Z" fill="#2e503b"/><path d="M78.32,88.56c.04-.8-.31-1.49-1.04-2.04l-.9-.66c-.83-.62-1.4-1.42-1.33-2.75,.11-2.25,2-3.66,3.9-3.56,1.83,.09,2.72,1.41,2.64,2.94-.01,.27-.09,.69-.14,.89l-1.7-.16c.03-.15,.07-.38,.08-.62,.04-.82-.38-1.29-1.09-1.33-.93-.05-1.76,.77-1.81,1.72-.03,.67,.25,1.14,.79,1.55l.97,.72c1.08,.78,1.59,1.97,1.53,3.3-.11,2.33-1.98,4.08-4.2,3.97-1.87-.09-3.04-1.24-2.91-3.77,.01-.25,.03-.55,.08-.85l1.85-.02c-.03,.15-.1,.52-.12,.83-.06,1.29,.32,2.04,1.27,2.09,1.03,.05,2.05-.96,2.11-2.25Z" fill="#2e503b"/><path d="M89.83,80.29l2.71,.13-.48,12.73-1.88-.09,.26-4.85-2.53-.12-2.36,4.75-1.96-.1,6.25-12.45Zm-1.23,6.32l1.94,.1,.33-4.76h-.04s-2.23,4.66-2.23,4.66Z" fill="#2e503b"/><path d="M96.96,80.64l1.92,.1,1.8,9.2,2.39-8.99,1.9,.09-3.36,12.59-1.98-.1-1.79-9.06-2.34,8.85-1.9-.09,3.36-12.59Z" fill="#2e503b"/><path d="M107.56,81.16l2.76,.14c2.21,.11,3.77,2.08,3.62,5.08-.23,4.73-3.26,7.69-6.85,7.52l-2.89-.14,3.36-12.59Zm-.11,11.08c2.12,.1,4.36-2.46,4.53-5.83,.1-2.05-.73-3.39-2.05-3.45l-.92-.05-2.46,9.28,.9,.04Z" fill="#2e503b"/><path d="M43.06,103.82l1.76,.09,1.51,4.05,3.65-3.79,1.96,.1-3.36,12.59-1.89-.09,2.55-9.55-2.96,3.13-.84-.04-1.3-3.4-2.55,9.61-1.89-.09,3.36-12.59Z" fill="#2e503b"/><path d="M54.85,110.27l-1.35,5.15,4.26,.21-.45,1.65-6.17-.3,3.34-12.59,6.13,.3-.45,1.65-4.21-.21-.65,2.48,3.86,.19-.43,1.65-3.88-.19Z" fill="#2e503b"/><path d="M62.62,104.78l1.76,.09,1.51,4.05,3.65-3.79,1.96,.1-3.35,12.59-1.89-.09,2.54-9.55-2.96,3.13-.84-.04-1.3-3.4-2.55,9.61-1.88-.09,3.35-12.59Z" fill="#2e503b"/><path d="M71.42,113.66c.11-2.27,.87-4.66,2.14-6.29,1-1.26,2.27-2.13,3.86-2.05,2.12,.1,3.42,1.79,3.28,4.59-.11,2.31-.88,4.71-2.17,6.4-.94,1.17-2.16,2.08-3.86,2-1.98-.1-3.4-1.75-3.26-4.64Zm7.32-3.7c.07-1.47-.34-2.82-1.53-2.88-2.4-.12-3.72,4.34-3.83,6.55-.08,1.6,.37,2.86,1.54,2.92,2.4,.12,3.7-4.28,3.81-6.59Z" fill="#2e503b"/><path d="M83.99,105.84l3.26,.16c1.67,.08,2.81,1.14,2.72,2.94-.05,.95-.47,1.78-1.35,2.41-.42,.29-.87,.5-1.33,.63l.87,6.82-1.87-.09-.85-6.62-1.21-.06-1.71,6.49-1.89-.09,3.35-12.59Zm.67,4.57l1.56,.08c.9,.04,1.75-.52,1.8-1.53,.04-.82-.47-1.3-1.25-1.34l-1.33-.07-.77,2.86Z" fill="#2e503b"/><path d="M92.9,106.28l1.9,.09-3.36,12.59-1.9-.09,3.35-12.59Z" fill="#2e503b"/><path d="M97.73,112.39l-1.35,5.15,4.26,.21-.45,1.65-6.17-.3,3.34-12.59,6.13,.3-.45,1.65-4.21-.21-.66,2.48,3.86,.19-.43,1.66-3.88-.19Z" fill="#2e503b"/><path d="M107.63,115.84c.04-.8-.31-1.49-1.04-2.04l-.9-.66c-.83-.62-1.4-1.42-1.33-2.74,.11-2.25,2-3.66,3.9-3.56,1.83,.09,2.72,1.41,2.64,2.94-.01,.27-.09,.69-.14,.89l-1.7-.16c.03-.14,.07-.38,.08-.62,.04-.82-.38-1.29-1.09-1.33-.93-.05-1.76,.77-1.81,1.71-.03,.67,.26,1.14,.79,1.55l.97,.72c1.08,.78,1.59,1.97,1.53,3.3-.11,2.33-1.98,4.08-4.2,3.97-1.87-.09-3.04-1.24-2.91-3.77,.01-.25,.03-.55,.08-.85l1.85-.02c-.02,.15-.1,.52-.11,.83-.06,1.29,.32,2.04,1.27,2.09,1.03,.05,2.05-.96,2.11-2.25Z" fill="#2e503b"/><path d="M45.09,129.76l2.71,.13-.48,12.73-1.89-.09,.26-4.85-2.53-.12-2.36,4.75-1.96-.1,6.25-12.45Zm-1.23,6.32l1.94,.1,.33-4.76h-.04s-2.23,4.66-2.23,4.66Z" fill="#2e503b"/><path d="M52.22,130.11l3.26,.16c1.67,.08,2.81,1.14,2.72,2.94-.05,.95-.47,1.78-1.35,2.41-.42,.29-.87,.5-1.33,.63l.88,6.82-1.87-.09-.85-6.62-1.21-.06-1.71,6.49-1.89-.09,3.36-12.59Zm.67,4.57l1.56,.08c.9,.04,1.75-.52,1.8-1.53,.04-.82-.47-1.3-1.25-1.34l-1.34-.07-.76,2.86Z" fill="#2e503b"/><path d="M61.49,136.44l-1.36,5.15,4.26,.21-.45,1.65-6.17-.3,3.34-12.59,6.13,.3-.45,1.65-4.21-.21-.66,2.48,3.86,.19-.43,1.66-3.88-.19Z" fill="#2e503b"/><path d="M72.83,131.13l1.76,.09,1.51,4.05,3.65-3.79,1.96,.1-3.36,12.59-1.88-.09,2.54-9.55-2.96,3.13-.84-.04-1.3-3.4-2.55,9.61-1.89-.09,3.36-12.59Z" fill="#2e503b"/><path d="M86.09,131.78l2.71,.13-.48,12.73-1.89-.09,.26-4.85-2.53-.12-2.36,4.75-1.96-.1,6.25-12.45Zm-1.23,6.32l1.94,.1,.33-4.76h-.04s-2.23,4.66-2.23,4.66Z" fill="#2e503b"/><path d="M93.23,132.13l2.76,.14c2.21,.11,3.77,2.08,3.62,5.08-.23,4.73-3.26,7.69-6.85,7.52l-2.89-.14,3.35-12.59Zm-.11,11.08c2.12,.1,4.36-2.46,4.53-5.83,.1-2.05-.73-3.39-2.05-3.45l-.92-.05-2.46,9.28,.9,.04Z" fill="#2e503b"/><path d="M103.22,138.5l-1.35,5.15,4.26,.21-.45,1.65-6.17-.3,3.34-12.59,6.13,.3-.45,1.65-4.21-.21-.65,2.48,3.86,.19-.43,1.66-3.88-.19Z" fill="#2e503b"/></g><polygon points="98.15 42.25 53.64 40.05 53.67 39.49 98.17 41.68 98.15 42.25" fill="#2e503b"/><polygon points="91.43 158.94 53.5 157.07 53.53 156.5 91.46 158.38 91.43 158.94" fill="#2e503b"/></g></g></svg>