<?xml version="1.0" encoding="UTF-8"?><svg id="b" xmlns="http://www.w3.org/2000/svg" width="116.56" height="152.72" viewBox="0 0 116.56 152.72"><g id="c"><g><g><path d="M42.39,91.49c.35,.55,.76,1.04,.03,1.67-.66,.56-1.23,.76-1.92,.12,.43-.79,1.06-1.38,1.89-1.79Z" fill="#2e503b"/><path d="M54.8,47.87c-4.65,4.18-5.64,9.33-5.79,14.74-.04,1.56-.66,3.03-.95,4.54-.27,1.38-1.94,2.11-3.53,2.19-1.58,.08-3.17,.12-4.74-.25-.95-.23-1.94-.32-2.73,.3-1.34,1.06-2.58,2.06-4.28,.5-.35-.32-.87,.16-1.29,.35-.55,.24-1.12,.8-1.73,.29-.57-.48-.16-1.12,0-1.69,.41-1.49-.38-2.8-.8-4.13-.91-2.84,.04-5.01,2.41-6.69,1.58-1.12,3.27-2.09,4.94-3.1,4.31-2.6,8.02-5.85,11.44-9.42,.38-.39,.69-1.24,1.47-.64,.8,.61-.09,1.06-.38,1.49-3.17,4.7-7.71,8.33-11.2,12.79-.54,.69-1.09,1.38-1.38,2.25,4.56-5.64,10.56-10.13,14.42-16.36,.59,2.66,.55,2.81-1.77,6.4-1.28,1.98-2.58,3.96-3.86,5.94l.52,.3c1.83-2.74,3.74-5.43,5.45-8.23,.82-1.35,1.77-1.98,3.78-1.58Z" fill="#2e503b"/><path d="M53.32,72.01c2.36-.98,4.71-1.82,7.38-1.89,2.28-.06,4.07-1.37,5.56-2.98,.76,.15,1.51,.31,2.36,.48-3.08,4.07-8.13,4.57-12.26,6.63,3.87-.88,7.76-1.67,10.89-4.23,.64-.53,.86-.95,1.58,.13,1.07,1.61,2.12-.67,3.59-.26-.4,2.35-1.37,4.56-2.94,6.44-1.66,1.99-3.57,3.81-5.39,5.68-1.96,2.02-4.58,1.12-6.94,1.39-.69,.11-1.4,.17-2.08,.34-4.38,1.12-8.04-.62-11.65-2.57-1.45-.78-.64-1.57,.06-2.3,2.79-2.92,6.55-4.61,9.84-6.89Z" fill="#2e503b"/><path d="M83.19,31.53c-2.03,2.09-2.46-.11-3.24-.95,17.31-11.55,15.5-23.26,15.95-27.82,.18-1.81,2-3.12,3.42-2.66,1.85,.6,1.86,1.93,1.49,3.49-.63,2.68-.63,5.46-1,8.12-.47,3.39-1.87,6.85-4.26,9.73-.63,.75-1.18,1.61-1.54,2.51-.64,1.57-1.05,2.72-3.34,3.34-2.34,.64-3.72,3.31-4.94,5.52-.22,.39-.26,.88-.52,1.25-.44,.65-1.22,.79-1.91,.58-.97-.31-.33-.96-.14-1.46,.19-.5,.38-.98,.01-1.62Z" fill="#2e503b"/><path d="M58.25,94.09c-.59-.57-.83-1.23-.7-2.03,.06-.36,.14-1-.01-1.07-2.42-1.12-1.55-2.88-1.68-4.82-.13-1.94,.4-1.93,1.77-2.01,3.73,.61,6.52-.62,8.86-3.47,2.01-2.46,4.71-4.4,5.68-7.59,.41-1.35,1.68-.14,2.61-.67-.98,3.25-2.88,5.67-4.74,8.13,2.96-2.26,4.68-5.27,5.81-8.96,.75,1.39,.3,2.27-.07,3.17-1.53,3.72-4.22,6.64-7.2,9.36-1.71,1.56-3.41,3.12-4.62,5.09-.83,1.09-1.79,2.12-2.44,3.3-.74,1.35-1.77,1.83-3.28,1.59Z" fill="#2e503b"/><path d="M41.31,27.02c.05-.27-.07-.75,.32-.71,3.39,.37,6.9-.71,10.19,.74,1.46,2.12,3.36,3.36,6.2,3.15,1.41-.1,2.31,1.09,3.43,1.73,.75,.64,1.5,1.28,2.3,1.98-1.24,.69-2.11,.17-2.97-.5-.85-.67-1.67-1.39-2.62-1.92-1.72-.96-4.19-.46-4.62,1.06-1.01,3.55-3.86,4.45-7.18,4.82-.68,.07-1.37,.07-2.33,.11,1.4-1.75,.41-2.29-1.14-2.42-.02-1.03,2.38-2.39-.57-2.77-.48-.06-.5-.61-.1-.85,2.58-1.59,.75-2.71-.43-3.91-.16-.16-.33-.33-.49-.49Z" fill="#2e503b"/><path d="M77.93,72.35c-1.33-2.29-2.95-1.01-4.46-.39-.1-.52-.28-.89-.23-1.23,.27-2.07-.77-2.19-2.33-1.37-1.28,.68-2.08,.74-1.53-.95,.43-1.33,.05-1.86-1.39-1.74-.69,.06-1.24-.24-1.77-.55-.58-.35-.8-.91,.04-1.11,2.14-.53,3.69-2.01,5.57-2.93,.92-.45,2-.94,2.94-.47,2.27,1.13,2.89-.41,3.41-1.82,.86-2.34,1.38-4.76,1.37-7.26,0-.61-.03-1.39,.73-1.44,.87-.05,1.08,.69,1.1,1.43,.08,3.62-1.19,6.88-2.95,10.01-.19,.34-.96,.48-.5,1.03,1.57,1.87,.8,3.79,.29,5.76-.25,.98-.2,2.03-.28,3.05Z" fill="#2e503b"/><path d="M57.66,48.96c-.71,2.93-2.12,5.29-2.55,7.91-.17,1.03-.55,2.05-.57,3.08-.09,5.51-3.51,8.74-8.34,10.98-1.21,.56-2.5,.74-3.92,.41-1.98-.46-3.91-.21-5.64,1-.62,.43-1.4,.77-2.15,.87-.87,.12-1.6-.33-1.5-1.29,.12-1.13,.83-.46,1.35-.32,.51,.14,.99-.02,1.32-.34,2.01-2.02,4.45-1.42,6.88-1.1,2.86,.37,6.17-1.14,6.51-3.02,.39-2.12,.73-4.27,.87-6.41,.14-2.11,.63-4.13,1.18-6.16,.19-.71,.48-1.43,.88-2.06,.81-1.25,1.29-2.89,3.52-2.53,.53,.09,1.18-.53,2.17-1.01Z" fill="#2e503b"/><path d="M63.3,35.23c-.6,.61-1.29,1.14-1.74,1.81-1.05,1.54-1.98,2.96-1.16,5.09,1.03,2.65-.75,4.97-1.84,7.39-.87-.47-.25-1.36-.91-1.82-.94,.18-1.14,1.37-2.32,1.54-.07-.89-.13-1.79-.2-2.66-.81-.28-1.21,.39-1.8,.5-1.03,.19-1.93,.41-1.48-1.18,.31-1.07,.07-1.91-1.54-1.7-.71,.1-1.58,0-2.2-.88,1.72-.93,2.92-2.42,4.4-3.62,1.11-.89,2.5-1.81,3.85-1.31,2.08,.77,2.83-.3,3.74-1.6,.71-1.02,1.4-2.26,3.19-1.57Z" fill="#2e503b"/><path d="M42.48,33.05c-1.37-.69-2.33-2.48-4.4-1.58-.35,.15-1.09,.18-1.45-.63,1.49-.08,2.86-.17,4.24-.23,.81-.04,1.86-.17,1.76-1-.08-.68-.87-1.35-1.99-1.13-2.6,.51-5.2,.17-7.79-.18,.41-.48,1.05-.26,1.55-.45-2.16-.52-4.31-.7-6.47,0,.36,.15,.72,.3,1.08,.45-1.31,.24-2.8,.4-1.52,2.2,2.17,3.05,11.21,5.33,14.59,3.67,.43-.21,1.19-.73,.41-1.12Z" fill="#2e503b"/><path d="M78.51,49.57c0-.46,0-.93,0-1.39,.31-4.24,1.96-8.1,3.73-11.93,.35-.76,.79-1.14,1.59-.92,1.23,.34,.34,1.1,.19,1.59-1.3,4.13-3.31,8.11-2.56,12.61,.24,1.42-1.06,.59-1.57,.9-1.29,.8-1.2-.18-1.37-.87Z" fill="#2e503b"/><path d="M68.03,35.14c-.87,0-1.74,.02-2.61,0-1.19-.04-1.09-.93-1.08-1.64,.03-1.04,.95-.63,1.42-.54,4.25,.82,8.28,.1,12.26-1.3,.57-.2,1.35-.9,1.84-.02,.59,1.05-.42,1.46-1.17,1.82-2.84,1.33-5.98,1.19-9.01,1.59-.54,.07-1.1,.01-1.66,.01,0,.03,0,.05,0,.08Z" fill="#2e503b"/><path d="M44.07,36.33c-6.48,1.67-13.31,.21-14.85-3.33,3.51,2.37,7.22,2.33,10.9,2.09,1.51-.1,2.38,.88,3.95,1.24Z" fill="#2e503b"/><g><path d="M85.83,72.99c.95-4.5,.23-8.84-1.36-13.1-.6-1.29-1.11-2.66-3.17-3.27,.99,3.34,2.65,6.19,2.64,9.42,.08,.22,.1,.43,.1,.65,.58,2.46,.23,4.88-.58,7.27,0,.03,0,.06,0,.09-.33,3.21-2.09,5.31-5.31,6.44-2.39,.84-4.65,1.99-6.11,4.07-.95,1.36-1.78,2.78-4.06,3.81,1.77-.01,2.72,.03,3.72,.55,1.41,.74,2.23,2.54,4.24,2.28,.05,0,.17,.25,.19,.39,.33,2.09,1.13,1.21,2.01,.32,.39-.39,.38-1.2,1.27-1.11,.25,1.14,.43,2.31,1.64,3.44,.27-2.56,1.69-4.5,2.4-6.7,.31-.96,.63-1.99,.11-2.84-1.07-1.78-1.61-3.04-.11-5.24,1.18-1.73,1.83-4.21,2.35-6.47Z" fill="#2e503b"/><path d="M70.46,85.34c1.81-2.4,3.91-4.29,6.8-5.3,3.28-1.15,5.19-3.26,5.69-6.5-.01-.02-.03-.03-.04-.05,.51-1.94,.36-3.93,.49-5.89,.02-.02,.04-.04,.05-.05-.23-2.94-.95-5.76-2.28-8.74-.84,1.7-2.54,3.54-2.1,4.53,1.4,3.13-.49,5.88-.36,8.79,.02,.48,.17,1.34-.57,1.22-1.29-.2-1.19,.71-1.42,1.29-.59,1.47-1.42,2.81-2.27,4.15-2.55,4.01-6.74,6.65-9.6,10.39,2.71-.16,4.28-2.06,5.61-3.84Z" fill="#2e503b"/></g><path d="M73.29,98.2c.36-2.26,.73-4.51,1.81-7.29,.19,1.91,1.97,2.58,1.79,3.82-.73,5.24,.1,10.88-4.1,15.31-2.21,2.33-4.78,4.35-6.46,7.14-.79,1.32-1.8,1.19-2.14-.4-.44-2.1-.94-4.11-3.44-4.91-.13-.04-.25-.21-.3-.34-1.42-4.33-3.77-8.48-.38-13.12,2.53-3.47,5.55-6.3,9.06-8.77,.26-.19,.53-.7,.92-.2,.35,.46,.2,.91-.07,1.43-1.44,2.72-2.82,5.47-4.2,8.22-.05,.09,.08,.25,.19,.6,2.61-3.1,2.99-7.26,6.07-10.21,.61,.88-.02,2.2,1.41,2.45,.64,.11,.19,.71,.12,1.12-.27,1.54-.86,3.03-.73,4.63-.05,1.92-.63,3.75-1.16,5.58-.41,1.17-1.3,2.16-1.52,3.4,0,.32,.4-.04,.08,.02-.12,.02-.14-.04-.09-.19,.34-1.16,1.22-2.09,1.55-3.26,.69-1.64,.6-3.49,1.59-5.05Z" fill="#2e503b"/><path d="M74.74,120.67c-1.19-1.52-2.43-2.47-3.82-3.37-1.99-1.3-2.05-2.58-.24-4.09,4.49-3.75,6.67-8.37,6.62-14.06-.02-2.24,0-4.62,1.73-6.67,.08,4.05,2.25,8.04,.3,12.06-.99,2.04-1.8,3.96-1.3,6.22,.06,.29,.11,.62,.02,.89-1.02,3.01-2.67,5.81-3.3,9.02Z" fill="#2e503b"/><path d="M57.72,94.72c2.08,.37,3.56-.21,4.69-2.06,1.18-1.93,3.41-2.69,5.75-3.69-.32,.96-.97,1.21-1.47,1.57-5.07,3.75-8.94,8.16-9.47,14.58-.16,2-1.81,3.14-3.96,2.96-.97-.08-1.86-.21-2.64,.51-.7,.65-1.72,.79-2.38,.3-.77-.57,0-1.37,.34-1.98,2.18-3.93,5.25-7.26,8.08-10.76,.38-.47,.72-.97,1.07-1.46,0,0-.02,.02-.02,.02Z" fill="#2e503b"/><path d="M68.54,115.49c.71,1.63,1.83,2.59,3.28,3.29,.54,.26,1.38,.61,.7,1.52-.81,1.1-1.49,2.44-3.01,2.64-1.06,.14-.94-1-1.16-1.66-.12-.35,0-.93-.23-1.07-2.59-1.62-.83-3.03,.42-4.71Z" fill="#2e503b"/><path d="M60.34,119.09c.68-2.05,1.21-3.66,1.76-5.32,1.7,2.24,1.37,3.36-1.76,5.32Z" fill="#2e503b"/><path d="M59.19,111.85c-1.03,1.55-2.03,3.11-3.1,4.63-.3,.42-.51,1.28-1.29,.91-.69-.33-.39-1-.19-1.58,.16-.49,.14-1.04,.63-1.39,.33-1.37,1.3-2.38,2.25-3.35,1.46-1.48,2.08-2.86-.16-4.17-1.1,1.46-2.34,2.65-4.5,1.82-.7-.27-1.26,0-1.67,.5-2.04,2.52-.94,8.66,1.85,10.41,.42,.27,.76,0,1.08-.16,1.19-.58,2.29-1.31,3.68-.3,.6,.43,.74-.26,.78-.68,.15-1.72,.83-3.31,1.36-4.94,.24-.72,.55-1.52-.72-1.69Z" fill="#2e503b"/><path d="M59.91,119.27c-.68,.87-.15,1.98-.75,3.08-.09-.83-.16-1.46-.22-2.09,.27-2.54,.96-4.95,2.27-7.19-.06,2.15-1.29,4.05-1.29,6.19Z" fill="#2e503b"/><path d="M58.88,111.62c-1.2,1-1.98,2.28-2.81,3.54-.02,.04-.16,.05-.19,.03-.1-.09-.19-.2-.28-.3,.87-1.87,2.3-3.34,3.68-4.93,.57,.82-.33,1.13-.41,1.66Z" fill="#2e503b"/><path d="M71.18,103.6c.56-1.97,1.11-3.94,1.67-5.91,.15,.17,.3,.34,.45,.5-.28,1.85-.8,3.64-1.46,5.4-.22,.19-.43,.2-.65,0Z" fill="#2e503b"/><path d="M36.33,79.96c2.79-3.3,6.71-3.38,10.04-4.69-1.29,1.14-2.51,2.32-3.77,3.43-1.12,.99-.07,2.91-1.68,3.44-1.75,.58-1.48-2.07-3.08-1.98-.37,.02-.74-.09-1.5-.2Z" fill="#2e503b"/><path d="M47.05,83.9c-3.17,.81-2.49,4.77-5.99,4.85,.42-1.45,.26-2.92,.11-4.42-.21-2.13,1.11-2.8,3.1-1.78,.74,.38,1.5,.73,2.79,1.35Z" fill="#2e503b"/><path d="M50.4,88.82c-1.13,1.64-2.11,3.32-3.14,4.98-.98,1.59-3.15,1.93-4.84,2.06-.95,.07-.41-1.45,.23-2.07,2.21-2.12,4.86-3.67,7.76-4.97Z" fill="#2e503b"/><path d="M54.59,88.21c.19,1.17,.14,2.01,1.31,2.44,1.33,.48,1.03,1.35,.05,1.99-1.84,1.2-3.91,1.77-6.37,1.87,1.35-2.32,3.01-4.17,5.01-6.3Z" fill="#2e503b"/><path d="M55.06,86.26c-2.62,2.94-5.05,5.97-7.31,9.14,1.24-3.91,3.67-6.97,7.31-9.14Z" fill="#2e503b"/><path d="M51.81,85.14c-4.29,3.56-9.98,3.94-13.99,7.29,1.03-1.63,10.77-6.7,13.99-7.29Z" fill="#2e503b"/><path d="M54.69,84.85c-3.51,2.68-7.62,4.5-11.28,6.98,3.35-2.91,7.2-5.11,11.28-6.98Z" fill="#2e503b"/><path d="M44.39,87.72c1.33-2.83,2.95-3.98,5.79-3.31-1.48,1.52-3.44,2.09-5.79,3.31Z" fill="#2e503b"/><path d="M71.18,103.6c.22,0,.44,0,.65,0-.44,1.31-1.1,2.5-2.33,3.41,.56-1.14,1.12-2.27,1.68-3.41Z" fill="#2e503b"/></g><g><path d="M2.27,112l-.97,4.55h3.29l-.22,.98H0l2.05-9.63H6.41l-.21,.98H2.93l-.46,2.15h2.96l-.21,.98H2.27Z" fill="#2e503b"/><path d="M12.66,114.58c0-.65-.26-1.18-.83-1.57l-.71-.47c-.59-.4-1.08-.98-1.08-1.97,0-1.68,1.33-2.82,2.66-2.82s1.91,.95,1.91,2.02c0,.22-.06,.55-.08,.69l-1-.05c.01-.11,.04-.32,.04-.52,0-.72-.36-1.11-.94-1.11-.82,0-1.49,.8-1.49,1.66,0,.56,.26,.98,.68,1.27l.75,.51c.78,.51,1.2,1.35,1.2,2.3,0,1.71-1.33,3.14-2.88,3.14-1.24,0-2.16-.73-2.16-2.64,0-.19,0-.41,.03-.65l1.08-.06c-.01,.1-.04,.34-.04,.58,0,1.13,.33,1.76,1.15,1.76s1.72-.93,1.72-2.06Z" fill="#2e503b"/><path d="M18.7,107.9h5.34l-.22,.98h-2.1l-1.84,8.65h-1.11l1.84-8.65h-2.12l.21-.98Z" fill="#2e503b"/><path d="M105.95,109.2l-1.92,.89-.36-.84,3.32-1.6h.39l-2.12,9.88h-1.09l1.78-8.34Z" fill="#2e503b"/><path d="M114.99,108.88h-3.82l.21-.98h5.19l-.1,.48-5.44,9.15h-1.19l5.15-8.65Z" fill="#2e503b"/></g><g><path d="M12.76,152.51h-1.34c-.55,0-.91-.08-1.24-.36-.39-.33-.83-.93-2.62-3.49-1.83-2.58-2.05-2.82-2.37-2.82-.2,0-.39,.18-.57,.34l-.83,.79c-.14,.14-.22,.24-.22,.43v1.72c0,.91,.04,1.54,.2,1.91,.33,.79,1.03,.67,1.03,1.1,0,.28-.24,.38-.61,.38H.96c-.38,0-.61-.1-.61-.38,0-.41,.71-.38,1.03-1.08,.16-.34,.2-1.03,.2-1.93v-7.67c0-1.44-.04-1.83-.49-2.13-.33-.22-.63-.24-.63-.55,0-.22,.2-.34,.53-.34h3.18c.33,0,.53,.12,.53,.34,0,.32-.3,.34-.63,.55-.45,.3-.49,.69-.49,2.13v4.14c0,.06,.02,.08,.06,.08,.02,0,.06-.02,.12-.08,.95-.91,3.51-3.37,4.26-4.12,.87-.87,1.3-1.36,1.3-1.78,0-.55-.59-.51-.59-.91,0-.26,.24-.35,.59-.35h3.31c.33,0,.51,.12,.51,.35,0,.3-.43,.39-.81,.57-.91,.43-1.8,1.14-3.2,2.49l-2.8,2.66s-.08,.08-.08,.12c0,.06,.06,.12,.12,.12,.1,0,.18-.08,.36-.08,.53,0,1.22,1.08,2.68,3.18,2.13,3.08,2.82,3.63,3.37,3.87,.32,.14,.49,.24,.49,.43s-.16,.38-.51,.38Z" fill="#2e503b"/><path d="M23.77,147.3c0,2.96-2.07,5.43-5.01,5.43s-5.03-2.07-5.03-5.29c0-2.98,2.09-5.45,5.09-5.45s4.95,2.33,4.95,5.31Zm-8.03-8.7c0-.14,.08-.18,.18-.18h5.7c.08,0,.18,.02,.18,.18v.75c0,.16-.1,.18-.18,.18h-5.7c-.1,0-.18-.02-.18-.18v-.75Zm2.8,4.38c-1.74,0-2.8,1.54-2.8,3.73,0,2.72,1.28,4.99,3.22,4.99s2.8-1.89,2.8-3.83c0-2.27-1.01-4.89-3.22-4.89Z" fill="#2e503b"/><path d="M40.98,143.51c-.51,.51-.81,1.18-1.11,1.99l-2.53,6.98c-.04,.12-.1,.16-.24,.16h-1.16c-.12,0-.18-.04-.22-.14l-2.66-7.83c-.02-.06-.04-.08-.06-.08-.04,0-.06,.02-.08,.08l-2.9,7.79c-.06,.14-.12,.18-.26,.18h-1.14c-.18,0-.26-.04-.3-.18l-2.19-7.34c-.24-.79-.51-1.48-.85-1.8-.35-.35-.91-.35-.91-.75,0-.32,.26-.37,.63-.37h3.24c.33,0,.53,.12,.53,.35,0,.49-.91,.32-.91,1.26,0,.3,.08,.69,.26,1.3l1.5,5.07c.02,.06,.04,.1,.08,.1s.06-.04,.08-.1l2.96-7.99c.04-.1,.1-.14,.22-.14h1.07c.14,0,.18,.04,.22,.14l2.72,7.99c.02,.06,.04,.12,.08,.12s.06-.06,.08-.12c.2-.53,.79-2.25,1.22-3.55,.41-1.26,.65-2.05,.65-2.6,0-1.12-1.01-.93-1.01-1.48,0-.26,.26-.35,.61-.35h2.78c.41,0,.59,.12,.59,.35,0,.38-.47,.39-1.01,.95Z" fill="#2e503b"/><path d="M52.58,149.04c0,1.03,.06,1.78,.3,2.15,.33,.51,.97,.59,.97,.95,0,.28-.26,.38-.55,.38h-3.31c-.3,0-.55-.1-.55-.38,0-.39,.67-.41,.99-1.03,.2-.38,.26-1.08,.26-2.07v-3.08c0-1.74-.91-2.47-2.07-2.47-.59,0-1.22,.22-1.7,.69-.75,.75-.93,1.82-.93,4.85,0,1.01,.06,1.74,.28,2.11,.34,.57,.97,.63,.97,.99,0,.28-.24,.38-.53,.38h-3.28c-.3,0-.53-.1-.53-.38,0-.41,.71-.43,1.01-1.07,.18-.39,.24-1.07,.24-2.03v-8.09c0-.63-.02-.99-.2-1.24-.32-.47-1.14-.38-1.14-.81,0-.22,.1-.35,.55-.45,.73-.16,1.32-.35,1.83-.59,.14-.06,.26-.1,.38-.1,.26,0,.43,.18,.43,.55v5.41c0,.06,.02,.1,.06,.1s.06-.04,.1-.1c.61-.91,1.72-1.72,3.2-1.72,1.12,0,2.05,.47,2.58,1.22,.43,.59,.67,1.3,.67,2.68v3.14Z" fill="#2e503b"/><path d="M63.96,151.3c.18,0,.34,.12,.34,.32,0,.38-.61,1.1-1.48,1.1-.65,0-1.38-.39-1.5-1.56,0-.04,0-.1-.04-.1s-.04,.02-.08,.08c-.71,1.07-1.93,1.58-3.16,1.58-1.91,0-3.08-1.18-3.08-2.54,0-.79,.4-1.62,1.22-2.15,1.03-.69,2.25-.91,3.33-1.42,.79-.35,1.66-.93,1.66-1.99,0-.95-.65-1.62-1.72-1.62-1.18,0-1.8,.77-2.29,1.46-.39,.55-.45,.91-.89,.91-.47,0-.55-.45-.55-.97s.1-1.14,.34-1.44c.53-.69,2.13-.97,3.25-.97,2.53,0,3.83,1.42,3.83,3.37,0,1.54-.06,3.35-.06,4.93,0,.69,.24,1.01,.63,1.01h.24Zm-2.78-4.36s-.02-.08-.06-.08-.06,.02-.14,.08c-.69,.53-1.99,.87-2.94,1.5-.71,.47-.99,1.08-.99,1.64,0,.79,.53,1.5,1.58,1.5,.77,0,1.66-.43,2.13-1.4,.39-.83,.41-1.7,.41-2.9v-.34Z" fill="#2e503b"/><path d="M69.23,151.07c.36,.69,1.01,.65,1.01,1.07,0,.28-.26,.38-.55,.38h-3.29c-.3,0-.53-.1-.53-.38,0-.41,.69-.43,1.01-1.07,.2-.39,.24-1.05,.24-2.01v-3.51c0-.85,0-1.3-.2-1.62-.12-.2-.35-.32-.65-.41-.28-.1-.47-.2-.47-.4s.08-.35,.55-.45c.73-.16,1.28-.32,1.88-.57,.14-.06,.26-.1,.38-.1,.24,0,.41,.16,.41,.51v6.55c0,.99,.04,1.62,.24,2.01Zm-1.22-10.56c-.45,0-1.4-.97-1.4-1.4s.95-1.42,1.4-1.42,1.4,.97,1.4,1.42-.95,1.4-1.4,1.4Z" fill="#2e503b"/><path d="M86.95,140.35c.02,.37,.04,.77,.04,1.16,0,.32-.12,.59-.55,.59-.81,0-.47-1.6-1.89-2.33-.59-.3-1.14-.3-2.07-.3-.22,0-.26,.1-.26,.26v9.33c0,.93,.04,1.58,.22,1.95,.36,.73,1.03,.69,1.03,1.1,0,.28-.26,.38-.55,.38h-3.37c-.3,0-.53-.1-.53-.38,0-.47,.71-.35,1.05-1.14,.14-.33,.18-.99,.18-1.91v-9.33c0-.14-.04-.26-.26-.26-1.16,0-1.62,.04-2.23,.39-1.18,.69-.91,2.23-1.72,2.23-.33,0-.53-.18-.53-.59,0-.45,.02-.81,.04-1.16,.02-.4,0-.95,.04-1.5,.02-.39,.24-.57,.83-.57s1.64,.14,3.37,.14h2.92c1.76,0,2.8-.14,3.39-.14,.47,0,.77,.1,.81,.57,.04,.51,.04,1.01,.06,1.5Z" fill="#2e503b"/><path d="M95.08,150.38c0,.55-1.5,2.35-4.12,2.35-3.02,0-4.79-2.37-4.79-5.07,0-2.88,2.05-5.66,5.11-5.66,2.84,0,4.02,2.31,4.02,3.69,0,1.2-.59,1.38-1.56,1.4h-5.35c-.14,0-.22,.06-.22,.2v.1c0,2.07,1.18,3.93,3.28,3.93,1.93,0,2.72-1.34,3.2-1.34,.24,0,.43,.14,.43,.41Zm-6.83-4.4c0,.1,.04,.12,.16,.12h3.22c1.14,0,1.66-.24,1.66-1.14s-.79-1.99-2.19-1.99c-1.58,0-2.58,1.34-2.82,2.8-.02,.16-.02,.2-.02,.22Z" fill="#2e503b"/><path d="M106.66,149.04c0,1.03,.06,1.78,.3,2.15,.33,.51,.97,.59,.97,.95,0,.28-.26,.38-.55,.38h-3.31c-.3,0-.55-.1-.55-.38,0-.39,.67-.41,.99-1.03,.2-.38,.26-1.08,.26-2.07v-3.08c0-1.72-.91-2.47-2.07-2.47-.59,0-1.22,.22-1.7,.69-.75,.75-.93,1.82-.93,4.85,0,1.01,.06,1.74,.28,2.11,.34,.57,.97,.63,.97,.99,0,.28-.24,.38-.53,.38h-3.28c-.3,0-.53-.1-.53-.38,0-.41,.71-.43,1.01-1.07,.18-.39,.24-1.07,.24-2.03v-3.85c0-.63-.02-.99-.2-1.24-.32-.47-1.14-.37-1.14-.81,0-.22,.1-.36,.55-.45,.73-.16,1.32-.35,1.83-.59,.14-.06,.26-.1,.38-.1,.26,0,.43,.18,.43,.55v1.16c0,.06,.02,.1,.06,.1s.06-.04,.1-.1c.61-.91,1.72-1.72,3.2-1.72,1.12,0,2.05,.49,2.58,1.22,.43,.59,.67,1.3,.67,2.68v3.14Z" fill="#2e503b"/><path d="M116.21,150.77c0,.3-.3,.75-.71,1.1-.53,.47-1.32,.85-2.25,.85s-1.68-.39-2.15-1.05c-.39-.53-.55-1.34-.55-2.35,0-1.74,.14-3.51,.14-5.46,0-.14-.06-.2-.2-.2h-1.24c-.14,0-.22-.08-.22-.24v-.63c0-.12,.06-.2,.2-.24,.87-.24,1.3-.51,1.54-.91,.24-.39,.32-.93,.45-1.58,.04-.16,.1-.24,.26-.24h.81c.16,0,.24,.08,.24,.22v2.05c0,.35,.08,.45,.43,.45,.3,0,.55,0,1.01-.04,.41-.04,.97-.1,1.38-.1,.43,0,.63,.1,.63,.35,0,.1-.04,.24-.06,.38-.08,.47-.33,.61-.85,.61-.35,0-.79-.06-1.26-.08-.39-.02-.71-.02-1.07-.02-.16,0-.24,.08-.24,.24,0,.26-.06,2.43-.06,3.02,0,.73,0,1.38,.08,2.29,.14,1.56,.79,1.99,1.56,1.99,1.03,0,1.4-.77,1.78-.77,.2,0,.35,.14,.35,.34Z" fill="#2e503b"/></g></g></g></svg>