<?xml version="1.0" encoding="UTF-8"?><svg id="b" xmlns="http://www.w3.org/2000/svg" width="139.66" height="108.45" viewBox="0 0 139.66 108.45"><g id="c"><g><path d="M1.61,22.81c-.94-1.39-1.26-3.44-.7-6.12L4.41,.38h2.76L3.64,16.87c-.84,3.89,.49,5.56,3.08,5.56s4.2-1.74,5-5.56L15.29,.38h2.76l-3.53,16.48c-1.15,5.29-3.71,8.14-8.12,8.14-2.13,0-3.81-.77-4.79-2.19Z" fill="#2e503b"/><path d="M29.74,.38h2.73l4.72,18.99L41.25,.38h2.76l-5.21,24.34h-2.9L31.24,6.09l-3.95,18.64h-2.76L29.74,.38Z" fill="#2e503b"/><path d="M56.22,.38h6.58c2.87,0,4.97,1.84,4.97,5.01,0,1.36-.52,3.23-2.17,4.52-1.22,.97-2.97,1.46-4.62,1.46h-4.37l-2.83,13.35h-2.76L56.22,.38Zm.91,8.55h4.06c2.34,0,3.74-1.56,3.74-3.44,0-1.63-1.19-2.64-2.8-2.64h-3.71l-1.29,6.09Z" fill="#2e503b"/><path d="M79.1,.38h2.73l-4.69,21.91h7.9l-.52,2.43h-10.63L79.1,.38Z" fill="#2e503b"/><path d="M96.1,22.81c-.94-1.39-1.26-3.44-.7-6.12L98.9,.38h2.76l-3.53,16.48c-.84,3.89,.49,5.56,3.08,5.56s4.2-1.74,5-5.56L109.78,.38h2.76l-3.53,16.48c-1.15,5.29-3.71,8.14-8.12,8.14-2.13,0-3.81-.77-4.79-2.19Z" fill="#2e503b"/><path d="M120,16.66c0-4,1.12-8.59,3.32-11.96,1.71-2.68,4.06-4.69,7.14-4.69,4.13,0,5.95,3.27,6.12,7.13l-2.83,.42c-.18-2.16-.84-4.94-3.46-4.94-5.11,0-7.45,9.77-7.45,13.8,0,3.13,1.01,6.02,3.57,6.02s4.62-2.61,5.7-5.67h-5.07l.49-2.43h8.01l-.17,.9c-1.19,5.81-4.83,9.77-9.24,9.77-3.64,0-6.12-2.96-6.12-8.35Z" fill="#2e503b"/><path d="M1.61,64.54c-.94-1.39-1.26-3.44-.7-6.12l3.5-16.31h2.76l-3.53,16.48c-.84,3.89,.49,5.56,3.08,5.56s4.2-1.74,5-5.56l3.57-16.48h2.76l-3.53,16.48c-1.15,5.29-3.71,8.14-8.12,8.14-2.13,0-3.81-.77-4.79-2.19Z" fill="#2e503b"/><path d="M29.74,42.11h2.73l4.72,18.99,4.06-18.99h2.76l-5.21,24.34h-2.9l-4.65-18.64-3.95,18.64h-2.76l5.21-24.34Z" fill="#2e503b"/><path d="M54.37,42.11h2.66l-1.05,19.51h.07l6.54-14.57h1.85l.81,14.71h.07l7.52-19.65h2.76l-9.44,24.34h-3.08l-.66-13.35-6.12,13.35h-3.18l1.26-24.34Z" fill="#2e503b"/><path d="M86.55,42.11h2.76l-5.21,24.34h-2.76l5.21-24.34Z" fill="#2e503b"/><path d="M101.52,42.11h2.73l4.72,18.99,4.06-18.99h2.76l-5.21,24.34h-2.9l-4.65-18.64-3.95,18.64h-2.76l5.21-24.34Z" fill="#2e503b"/><path d="M128.01,42.11h4.76c4.13,0,6.89,3.86,6.89,9.28,0,8.35-5.35,15.06-11.86,15.06h-5l5.21-24.34Zm.07,21.87c4.13,0,8.74-5.56,8.74-12.45,0-4.14-1.85-6.95-4.48-6.95h-2.13l-4.13,19.4h1.99Z" fill="#2e503b"/><path d="M5.74,94.2l-2.45,11.51H11.61l-.56,2.47H0l5.18-24.34h11.02l-.53,2.47H7.42l-1.15,5.42h7.49l-.52,2.47H5.74Z" fill="#2e503b"/><path d="M32.01,100.7c0-1.63-.66-2.99-2.1-3.96l-1.78-1.18c-1.5-1.01-2.73-2.47-2.73-4.97,0-4.24,3.36-7.13,6.72-7.13s4.83,2.4,4.83,5.11c0,.56-.14,1.39-.21,1.74l-2.52-.14c.03-.28,.11-.8,.11-1.32,0-1.81-.91-2.82-2.38-2.82-2.06,0-3.78,2.02-3.78,4.21,0,1.43,.67,2.47,1.71,3.2l1.89,1.29c1.96,1.29,3.04,3.41,3.04,5.81,0,4.31-3.36,7.93-7.28,7.93-3.15,0-5.46-1.84-5.46-6.68,0-.49,0-1.04,.07-1.63l2.73-.14c-.04,.24-.11,.87-.11,1.46,0,2.85,.84,4.45,2.9,4.45s4.34-2.36,4.34-5.22Z" fill="#2e503b"/><path d="M45.03,100.21c0-4.1,1.15-8.69,3.36-12.07,1.78-2.71,4.06-4.69,7.1-4.69,3.64,0,6.12,2.78,6.05,7.3l-2.83,.24c0-2.57-.98-4.94-3.39-4.94-5.14,0-7.45,9.81-7.45,13.87,0,3.16,.91,5.95,3.53,5.95s5-3.06,6.3-7.62l2.73,.66c-2.34,7.51-5.81,9.53-9.23,9.53-3.71,0-6.16-2.82-6.16-8.24Z" fill="#2e503b"/><path d="M77.32,83.84h4.06l.11,24.34h-2.73l.03-9.88h-5l-4.3,9.88h-2.9l10.74-24.34Zm-2.59,12.17h4.09l.1-9.67h-.03l-4.16,9.67Z" fill="#2e503b"/><path d="M96.94,83.84h6.58c2.87,0,4.97,1.84,4.97,5.01,0,1.36-.52,3.23-2.17,4.52-1.22,.97-2.97,1.46-4.62,1.46h-4.37l-2.83,13.35h-2.76l5.21-24.34Zm.91,8.55h4.06c2.34,0,3.74-1.56,3.74-3.44,0-1.63-1.19-2.64-2.8-2.64h-3.71l-1.29,6.09Z" fill="#2e503b"/><path d="M120.35,94.2l-2.45,11.51h8.33l-.56,2.47h-11.05l5.18-24.34h11.02l-.53,2.47h-8.26l-1.15,5.42h7.49l-.52,2.47h-7.49Z" fill="#2e503b"/></g></g></svg>