<?xml version="1.0" encoding="UTF-8"?><svg id="b" xmlns="http://www.w3.org/2000/svg" width="256.39" height="132.38" viewBox="0 0 256.39 132.38"><g id="c"><g><g><path d="M102.43,38.45c.07,.43-.41,.51-.89,1.14-.35,.45-.66,1.26-.94,2.56-.19,.86-2.41,13.03-2.41,13.03-.02,.14-.08,.24-.24,.27l-.77,.12c-.16,.03-.24-.03-.3-.16l-6.21-11.89c-.03-.06-.06-.08-.11-.08s-.06,.03-.08,.1l-2.6,13.29c-.04,.17-.08,.24-.24,.27l-.84,.14c-.18,.03-.24-.03-.3-.16l-5.98-12.21c-.48-.96-.77-1.47-1.19-1.77-.55-.4-1.09-.26-1.16-.69-.06-.36,.29-.51,.7-.58l3.68-.59c.36-.06,.59,.07,.63,.31,.1,.63-.97,.48-.81,1.47,.05,.29,.2,.68,.52,1.33l4.28,8.89c.03,.06,.06,.08,.11,.08,.02,0,.04-.03,.05-.1l2.58-13.13c.02-.14,.1-.23,.26-.25l.93-.15c.16-.03,.24,.03,.3,.16l6.09,11.73c.03,.06,.04,.09,.08,.08s.04-.03,.05-.1c0,0,1.3-7.22,1.4-7.93,.23-1.59,.28-2.43,.19-2.99-.19-1.17-1.2-.82-1.3-1.43-.04-.27,.16-.47,.59-.54l3.15-.51c.45-.07,.73,.02,.77,.29Z" fill="#2e503b"/><path d="M109.24,51.77c.54,.72,1.28,.56,1.35,1.03,.05,.32-.23,.48-.57,.53l-3.79,.61c-.34,.05-.63-.01-.68-.33-.08-.47,.71-.62,.96-1.41,.15-.49,.08-1.24-.1-2.34l-.65-4.02c-.16-.97-.24-1.49-.53-1.81-.17-.2-.47-.3-.83-.35-.34-.06-.58-.14-.62-.36s.03-.42,.55-.62c.81-.32,1.42-.6,2.05-1,.15-.09,.28-.16,.41-.18,.27-.04,.51,.1,.57,.51l1.21,7.49c.18,1.13,.34,1.84,.64,2.26Zm-3.36-11.84c-.52,.08-1.79-.85-1.87-1.34s.83-1.8,1.35-1.88,1.79,.85,1.87,1.36-.83,1.78-1.35,1.86Z" fill="#2e503b"/><path d="M116.07,50.67c.54,.72,1.28,.56,1.35,1.03,.05,.32-.23,.48-.57,.53l-3.79,.61c-.34,.06-.63-.01-.68-.33-.08-.47,.71-.62,.96-1.41,.15-.49,.08-1.24-.1-2.35l-1.43-8.84c-.16-.97-.24-1.49-.53-1.81-.17-.2-.47-.3-.83-.35-.34-.06-.58-.14-.62-.36s.03-.42,.55-.62c.81-.32,1.42-.6,2.05-1,.15-.09,.28-.16,.41-.18,.27-.04,.51,.1,.57,.51l1.99,12.32c.18,1.13,.34,1.84,.64,2.26Z" fill="#2e503b"/><path d="M129.55,46.76c.09,.59,.19,1.03,.37,1.28,.44,.55,1.44,.28,1.52,.77,.04,.23-.05,.42-.55,.62-.83,.34-1.43,.65-1.94,.96-.23,.15-.36,.2-.5,.22-.3,.05-.5-.08-.57-.51l-.2-1.22c-.02-.11-.1-.17-.17-.16-.04,0-.09,.04-.14,.12-.73,1.25-1.94,2.26-3.42,2.5-2.18,.35-4.92-.9-5.55-4.8-.54-3.34,.96-7.05,4.34-7.6,1.09-.18,2.17,0,3.14,.42,.08,.03,.12,.05,.17,.04,.07-.01,.08-.06,.07-.13l-.35-2.14c-.09-.59-.19-1.06-.47-1.31-.52-.47-1.34-.22-1.42-.72-.04-.23,.03-.4,.56-.6,.81-.32,1.33-.58,1.96-.97,.17-.1,.3-.19,.48-.22,.27-.04,.51,.1,.57,.51l2.09,12.93Zm-2.59-2.31c-.5-3.11-2.13-4.66-4.03-4.35-2.38,.38-2.79,3.04-2.43,5.28,.43,2.66,2.08,4.55,4.06,4.23,2-.32,2.86-2.36,2.4-5.16Z" fill="#2e503b"/><path d="M149.48,43.82c.36-.78,.47-1.44,.94-1.52,.57-.09,.72,.42,.79,.87,.13,.83,.19,2.05-.46,2.76-.87,.93-2.62,1.51-4.12,1.75-5.29,.85-8.97-2.46-9.69-6.91-.81-5.01,2.55-9,7.14-9.74,1.66-.27,3.74-.19,4.55,.51,.4,.31,.58,.99,.74,1.96,.12,.74,.11,1.23-.42,1.32-.68,.11-.86-.72-1.76-1.54-.74-.69-1.83-1.23-3.4-.98-2.93,.47-5.08,3.46-4.37,7.84,.78,4.85,4.03,6.76,6.84,6.3,1.98-.32,2.81-1.77,3.21-2.62Z" fill="#2e503b"/><path d="M163.55,43.28c.2-.03,.41,.07,.44,.3,.07,.43-.5,1.38-1.5,1.54-.75,.12-1.66-.19-2.01-1.5,0-.05-.02-.11-.06-.11s-.04,.03-.08,.11c-.62,1.35-1.93,2.16-3.34,2.39-2.2,.36-3.76-.78-4.01-2.34-.15-.9,.15-1.92,1.01-2.69,1.05-.98,2.42-1.46,3.57-2.24,.84-.55,1.73-1.37,1.54-2.59-.17-1.08-1.05-1.73-2.27-1.53-1.36,.22-1.92,1.21-2.36,2.09-.35,.71-.35,1.12-.85,1.2-.54,.09-.72-.42-.81-1s-.1-1.33,.12-1.71c.49-.89,2.27-1.5,3.57-1.71,2.91-.47,4.66,.91,5.03,3.15,.28,1.76,.55,3.85,.84,5.65,.13,.79,.46,1.11,.91,1.03l.27-.04Zm-4.01-4.47s-.04-.09-.08-.08-.06,.03-.14,.12c-.7,.74-2.13,1.36-3.1,2.26-.73,.67-.93,1.42-.83,2.06,.15,.9,.89,1.62,2.09,1.42,.89-.14,1.83-.8,2.19-2,.3-1.02,.16-2.02-.06-3.39l-.06-.38Z" fill="#2e503b"/><path d="M176.51,38.53c.19,1.17,.4,2.02,.74,2.4,.48,.52,1.22,.5,1.29,.9,.05,.32-.23,.48-.57,.53l-3.81,.62c-.34,.05-.65-.01-.7-.33-.07-.45,.69-.6,.95-1.36,.16-.47,.09-1.29-.09-2.42l-.57-3.52c-.32-1.96-1.5-2.65-2.84-2.44-.68,.11-1.37,.48-1.82,1.1-.72,1-.73,2.25-.17,5.72,.19,1.15,.39,1.97,.71,2.36,.49,.59,1.23,.54,1.29,.95,.05,.32-.2,.47-.54,.53l-3.77,.61c-.34,.05-.63-.01-.68-.33-.08-.47,.74-.63,.96-1.41,.13-.48,.08-1.26-.1-2.37l-.71-4.4c-.12-.72-.2-1.12-.46-1.38-.45-.48-1.39-.22-1.47-.71-.04-.25,.05-.42,.55-.62,.81-.32,1.46-.65,2-1.02,.15-.09,.28-.16,.41-.18,.3-.05,.53,.12,.6,.55l.21,1.33c.01,.07,.04,.11,.09,.1s.06-.06,.1-.13c.54-1.15,1.66-2.28,3.36-2.56,1.29-.21,2.45,.18,3.2,.92,.61,.6,1.01,1.36,1.27,2.94l.58,3.59Z" fill="#2e503b"/><path d="M190.06,28.74c.04,.25-.12,.39-.35,.59-.9,.75-1.25,2.05-1.54,3.17l-2.18,8.55c-.05,.15-.15,.21-.31,.24l-1.18,.19c-.18,.03-.28-.02-.38-.19l-4.44-7.85c-.49-.89-.9-1.57-1.4-1.9-.49-.31-1.07-.29-1.13-.67-.05-.29,.13-.46,.66-.55l3.72-.6c.41-.07,.64,.06,.68,.33,.09,.54-1.01,.56-.85,1.53,.05,.29,.21,.71,.57,1.34l3.29,5.79c.06,.11,.09,.1,.11,.1s.04-.03,.05-.1l1.04-4.54c.35-1.56,.52-2.56,.41-3.22-.2-1.24-1.28-.84-1.37-1.42-.05-.32,.2-.47,.59-.54l3.22-.52c.48-.08,.74,0,.79,.29Z" fill="#2e503b"/><path d="M202.21,37.04c.2-.03,.41,.07,.44,.3,.07,.43-.5,1.38-1.5,1.54-.75,.12-1.66-.19-2.01-1.5,0-.05-.02-.11-.06-.11s-.04,.03-.08,.11c-.62,1.35-1.93,2.16-3.34,2.39-2.2,.36-3.76-.78-4.01-2.34-.15-.9,.15-1.92,1.01-2.69,1.05-.98,2.42-1.46,3.57-2.24,.84-.55,1.73-1.37,1.54-2.59-.17-1.08-1.05-1.73-2.27-1.53-1.36,.22-1.92,1.21-2.36,2.09-.35,.71-.35,1.12-.85,1.2-.54,.09-.72-.42-.81-1s-.1-1.33,.12-1.71c.49-.89,2.27-1.5,3.57-1.71,2.91-.47,4.66,.91,5.03,3.15,.28,1.76,.55,3.85,.84,5.65,.13,.79,.46,1.11,.91,1.03l.27-.04Zm-4.01-4.47s-.04-.09-.08-.08-.06,.03-.14,.12c-.7,.74-2.13,1.36-3.1,2.26-.73,.67-.93,1.42-.83,2.06,.15,.9,.89,1.62,2.09,1.42,.89-.14,1.83-.8,2.19-2,.3-1.02,.16-2.02-.06-3.39l-.06-.38Z" fill="#2e503b"/><path d="M204.35,34.01c.52-.08,.88,.57,1.5,1.19,.72,.72,1.68,1.44,3.08,1.21,1.38-.22,2.15-1.25,1.99-2.27-.48-2.96-6.81-.48-7.46-4.49-.35-2.19,1.45-3.98,3.95-4.39,1.11-.18,2.22-.08,2.81,.22,.66,.33,.91,1.03,1,1.6,.08,.52,.19,1.31-.47,1.42-.54,.09-.67-.38-1.26-1-.56-.58-1.33-1.15-2.46-.97-.95,.15-1.87,.95-1.7,2.01,.23,1.4,1.96,1.44,3.7,1.74,1.72,.28,3.46,.78,3.79,2.84,.34,2.08-1.3,4.08-4.13,4.53-1.59,.26-3.15-.02-3.83-.52-.55-.4-.85-1.37-.96-2.07-.08-.5-.07-.98,.46-1.07Z" fill="#2e503b"/></g><path d="M256.22,81.82l-10.86-69.56c-.6-3.83-2.65-7.19-5.78-9.47-3.13-2.28-6.96-3.21-10.79-2.61L12.26,34c-3.83,.6-7.19,2.65-9.47,5.78S-.42,46.73,.18,50.56L11.04,120.11c.6,3.83,2.65,7.19,5.78,9.47,2.51,1.83,5.47,2.79,8.52,2.79,.75,0,1.51-.06,2.27-.18l216.53-33.82c3.83-.6,7.19-2.65,9.47-5.78,2.28-3.13,3.21-6.96,2.61-10.78ZM228.99,1.43c.69-.11,1.38-.16,2.07-.16,2.78,0,5.48,.88,7.77,2.55,2.85,2.08,4.73,5.15,5.27,8.64l5.17,33.09c.16,1.05-.55,2.04-1.6,2.21L61.08,77.89c-1.32,.21-2.56-.69-2.77-2.01l-7.07-45.26c-.12-.77,.41-1.49,1.17-1.61L228.99,1.43ZM27.41,130.95c-3.49,.55-6.99-.3-9.84-2.38-2.85-2.08-4.73-5.15-5.27-8.64L1.43,50.36c-.54-3.49,.3-6.99,2.38-9.84,2.08-2.85,5.15-4.73,8.64-5.27l35.82-5.59c.82-.13,1.59,.43,1.72,1.26l14.28,91.4c.24,1.55-.82,3-2.37,3.25l-34.5,5.39Zm225.17-39.09c-2.08,2.85-5.15,4.73-8.64,5.27l-174.73,27.29c-1.79,.28-3.46-.94-3.74-2.73l-6.29-40.24c-.17-1.06,.56-2.05,1.61-2.22l187.23-30.23c.96-.16,1.87,.5,2.02,1.47l4.93,31.56c.55,3.49-.3,6.99-2.38,9.84Z" fill="#2e503b"/><g><path d="M88.14,96.4c.05,.29-.26,.38-.54,.64-.4,.36-.4,.76-.18,2.18l.31,1.95c.06,.41,0,.56-.23,.82-.53,.56-1.91,1.48-3.8,1.77-4.42,.69-7.61-2.18-8.21-6-.65-4.11,1.88-7.72,6.11-8.39,1.23-.19,2.49-.17,3.33,.12,.86,.28,1.05,.95,1.22,2.05,.07,.43,.17,1.07-.36,1.15-.82,.13-1.36-2.7-4.38-2.23-3.02,.47-4.33,3.46-3.85,6.5,.55,3.53,3.09,6.19,6.24,5.69,.53-.08,1.09-.21,1.63-.56,.31-.19,.38-.4,.33-.71l-.29-1.85c-.23-1.48-.35-1.82-1.13-2-.35-.08-.75-.08-.8-.39-.04-.23,.14-.38,.49-.44l3.51-.55c.35-.06,.56,.03,.6,.25Z" fill="#2e503b"/><path d="M93.86,100.5c.46,.63,1.09,.49,1.16,.9,.04,.27-.2,.41-.49,.46l-3.26,.51c-.29,.05-.54-.01-.58-.29-.06-.41,.61-.54,.83-1.21,.13-.42,.07-1.07-.08-2.02l-1.2-7.64c-.13-.84-.2-1.29-.45-1.57-.15-.18-.4-.26-.71-.31-.29-.05-.5-.12-.53-.32s.02-.36,.48-.53c.7-.27,1.22-.51,1.76-.86,.13-.08,.24-.14,.36-.16,.23-.04,.43,.09,.49,.44l1.67,10.64c.15,.97,.29,1.59,.55,1.95Z" fill="#2e503b"/><path d="M105.02,98.98c.18-.03,.35,.06,.38,.26,.06,.37-.43,1.19-1.29,1.32-.64,.1-1.43-.18-1.72-1.31,0-.04-.02-.1-.05-.09s-.04,.03-.06,.09c-.54,1.16-1.67,1.86-2.87,2.05-1.89,.3-3.22-.69-3.44-2.04-.12-.78,.14-1.66,.88-2.31,.91-.84,2.08-1.25,3.07-1.92,.73-.47,1.49-1.17,1.33-2.23-.15-.94-.89-1.5-1.95-1.33-1.17,.18-1.65,1.04-2.04,1.8-.3,.61-.31,.97-.74,1.03-.47,.07-.62-.36-.7-.87s-.08-1.15,.11-1.47c.42-.76,1.96-1.29,3.07-1.46,2.49-.39,4,.81,4.3,2.74,.24,1.52,.46,3.32,.71,4.88,.11,.68,.39,.96,.78,.9l.23-.04Zm-3.42-3.88s-.03-.07-.07-.07-.06,.03-.12,.1c-.6,.63-1.83,1.17-2.67,1.94-.63,.58-.81,1.22-.72,1.77,.12,.78,.76,1.4,1.79,1.24,.76-.12,1.57-.69,1.89-1.71,.26-.88,.15-1.74-.04-2.93l-.05-.33Z" fill="#2e503b"/><path d="M122.88,96.08c.48,.52,1,.38,1.06,.77,.04,.27-.2,.41-.49,.46l-3.22,.5c-.31,.05-.56-.01-.6-.28-.06-.41,.55-.45,.82-1.17,.15-.42,.09-1.09-.06-2.07l-.48-3.04c-.2-1.31-.93-2.35-2.43-2.11-.56,.09-1.14,.38-1.51,.92-.58,.87-.49,1.95-.02,4.94,.17,1.09,.34,1.8,.63,2.12,.44,.49,.92,.39,.98,.75,.04,.27-.18,.41-.49,.46l-3.04,.48c-.29,.05-.54-.01-.58-.29-.06-.39,.44-.39,.7-1.01,.18-.41,.13-1.1-.05-2.21l-.47-2.98c-.27-1.73-1.09-2.38-2.32-2.19-.55,.09-1.12,.38-1.5,.89-.64,.88-.65,1.98-.18,4.98,.16,1.01,.32,1.69,.6,2.02,.42,.51,1.05,.45,1.11,.82,.04,.27-.19,.41-.49,.46l-3.22,.5c-.29,.05-.56-.01-.6-.27-.06-.41,.58-.51,.81-1.19,.14-.4,.09-1.09-.07-2.07l-.55-3.49c-.13-.84-.2-1.29-.44-1.55-.41-.46-1.16-.16-1.24-.63-.03-.21,.04-.37,.46-.53,.7-.27,1.27-.56,1.74-.85,.15-.08,.26-.14,.37-.16,.25-.04,.43,.09,.49,.44l.19,1.21c0,.06,.03,.08,.07,.07s.05-.05,.08-.11c.46-.99,1.41-1.96,2.87-2.19,1.54-.24,2.57,.49,3.1,1.29,.03,.04,.05,.07,.09,.07s.05-.05,.08-.11c.48-1.01,1.41-1.98,2.87-2.21,1.11-.17,2.06,.14,2.75,.83,.5,.5,.83,1.21,1.04,2.55l.49,3.1c.17,1.09,.33,1.74,.65,2.08Z" fill="#2e503b"/><path d="M134.92,89.8c.42,2.69-.69,6.04-3.75,6.52-1.64,.26-2.68-.42-2.84-.39-.04,0-.07,.05-.06,.11l.14,.92c.14,.92,.3,1.55,.54,1.89,.42,.61,1.09,.45,1.16,.88,.04,.27-.17,.43-.46,.47l-3.24,.51c-.29,.05-.56-.01-.6-.28-.07-.43,.75-.58,.88-1.3,.08-.39,.02-1.04-.12-1.94l-1.17-7.43c-.11-.72-.17-1.09-.42-1.37-.41-.45-1.17-.18-1.24-.66-.03-.18,.05-.33,.48-.49,.7-.27,1.2-.51,1.74-.85,.13-.08,.26-.14,.37-.16,.23-.04,.41,.09,.47,.45l.17,1.07c.02,.1,.06,.15,.12,.14,.04,0,.08-.01,.14-.12,.63-1.08,1.67-1.94,2.94-2.14,2.2-.35,4.28,1.19,4.75,4.19Zm-1.8,.98c-.41-2.61-1.97-3.89-3.49-3.65-1.62,.25-2.47,1.85-2.06,4.42,.43,2.71,1.81,4.05,3.45,3.79,1.73-.27,2.48-2.13,2.1-4.56Z" fill="#2e503b"/><path d="M140.6,93.16c.46,.63,1.1,.49,1.16,.9,.04,.27-.2,.41-.49,.46l-3.26,.51c-.29,.05-.54-.01-.58-.29-.06-.41,.61-.54,.83-1.21,.13-.42,.07-1.07-.08-2.02l-.54-3.47c-.13-.84-.2-1.29-.45-1.57-.15-.18-.4-.26-.71-.31-.29-.05-.5-.12-.53-.32s.02-.36,.47-.53c.7-.27,1.22-.51,1.76-.86,.13-.08,.24-.14,.36-.16,.23-.04,.43,.09,.49,.44l1.02,6.47c.15,.97,.29,1.59,.55,1.95Zm-2.84-10.24c-.45,.07-1.53-.74-1.6-1.17s.72-1.55,1.16-1.62,1.53,.74,1.6,1.19-.72,1.53-1.17,1.6Z" fill="#2e503b"/><path d="M152.6,89.22c.16,1.01,.33,1.75,.63,2.08,.41,.45,1.05,.43,1.1,.79,.04,.27-.2,.41-.49,.46l-3.27,.51c-.29,.05-.56-.01-.6-.28-.06-.39,.6-.51,.82-1.17,.14-.4,.09-1.11-.07-2.09l-.48-3.04c-.27-1.7-1.28-2.3-2.43-2.12-.58,.09-1.18,.4-1.57,.95-.62,.86-.63,1.94-.16,4.94,.16,.99,.33,1.71,.6,2.04,.42,.51,1.05,.47,1.11,.82,.04,.27-.18,.41-.47,.45l-3.24,.51c-.29,.05-.54-.01-.58-.29-.06-.41,.63-.54,.83-1.21,.11-.42,.07-1.09-.08-2.04l-.6-3.8c-.1-.62-.17-.97-.39-1.2-.39-.42-1.19-.19-1.26-.62-.03-.21,.04-.37,.47-.53,.7-.27,1.25-.56,1.72-.87,.13-.08,.24-.14,.36-.16,.25-.04,.46,.11,.51,.48l.18,1.15c0,.06,.03,.09,.07,.09s.05-.05,.08-.11c.46-.99,1.43-1.96,2.89-2.19,1.11-.17,2.1,.17,2.74,.81,.52,.52,.86,1.18,1.08,2.55l.49,3.1Z" fill="#2e503b"/><path d="M162.34,82.4c-.1,.02-.3,.03-.3,.03,.44,.51,.66,1.17,.75,1.72,.33,2.09-.94,3.82-3.14,4.33-.81,.19-1.67,.28-1.58,.91,.06,.39,.48,.5,1.47,.45,.83-.05,1.88-.22,2.88-.23,1.42,0,2.34,.65,2.51,1.76,.33,2.12-1.66,3.56-4.5,4-1.72,.27-3.1,.13-3.89-.37-.57-.33-.89-.84-.97-1.35-.18-1.13,.75-1.84,1.26-1.91,.29-.05,.49,.06,.52,.26,.04,.23-.26,.54-.16,1.14,.2,1.27,1.89,1.46,3.35,1.23,1.81-.28,3.07-1.18,2.91-2.19-.11-.7-.72-.91-1.87-.83-.91,.06-2.14,.26-3.06,.22-1.2-.03-1.87-.6-1.99-1.33-.14-.88,.6-1.55,.98-1.75,.06-.03,.05-.05,.05-.07s-.03-.04-.07-.05c-1.26-.38-2.27-1.36-2.51-2.86-.32-2.03,1.06-3.96,3.3-4.31,1.75-.28,2.68,.54,3.13,.47,.58-.09,.26-1.02,1.12-1.15,.51-.08,.85,.19,.93,.69,.1,.66-.31,1.07-1.13,1.2Zm-5.46,2.37c.19,1.23,1.05,2.97,2.59,2.73,1.21-.19,1.66-1.38,1.46-2.67s-1.1-2.9-2.58-2.67c-1.19,.19-1.67,1.34-1.47,2.61Z" fill="#2e503b"/><path d="M180.83,84.95c.03,.19,0,.5-.04,.78-.16,1.04,.24,2.7-1.04,2.9-.53,.08-1.41,.06-3.3,.36l-5.07,.8c-.35,.06-.62,0-.66-.28-.07-.43,.63-.42,.84-1.25,.1-.38,.06-1.03-.08-1.92l-1.23-7.84c-.19-1.19-.26-1.54-.84-1.77-.28-.12-.62-.12-.67-.43-.03-.19,.14-.38,.47-.43l5.07-.8c1.83-.29,2.84-.59,3.41-.67,.37-.06,.77-.04,.87,.42,.13,.58,.43,2.09,.52,2.65,.06,.35-.07,.59-.48,.65-.21,.03-.41-.06-.65-.48-.32-.53-.57-1.11-1.33-1.45-.73-.32-1.92-.18-3.5,.07l-.76,.12c-.33,.05-.41,.2-.36,.48l.67,4.25c.06,.35,.16,.41,.51,.36,.47-.07,1.13-.18,1.9-.34,.72-.15,1.52-.4,2.02-.48,.39-.06,.71-.07,.76,.28,.02,.16,0,.26,0,.42,.02,.52-.18,.65-.86,.75-.49,.08-1.14,.12-1.86,.21-.61,.08-1.46,.21-1.99,.29-.18,.03-.24,.14-.21,.29l.53,3.39c.18,1.13,.27,1.58,.6,1.76,.28,.16,.8,.13,1.46,.03,1.33-.21,2.26-.51,2.82-.98,1.15-.94,1.07-2.48,1.84-2.63,.29-.05,.58,.13,.63,.46Z" fill="#2e503b"/><path d="M182.69,84.48c.45-.07,.76,.5,1.28,1.04,.62,.62,1.43,1.25,2.64,1.06s1.85-1.07,1.71-1.95c-.4-2.55-5.84-.44-6.38-3.91-.3-1.89,1.26-3.43,3.4-3.77,.96-.15,1.91-.06,2.41,.2,.57,.29,.78,.9,.86,1.38,.07,.45,.16,1.13-.41,1.22-.47,.07-.57-.33-1.08-.87-.48-.5-1.14-1-2.11-.85-.82,.13-1.61,.81-1.47,1.73,.19,1.21,1.67,1.26,3.17,1.52,1.48,.25,2.96,.69,3.24,2.47s-1.13,3.51-3.56,3.89c-1.36,.21-2.7-.04-3.29-.46-.47-.35-.72-1.18-.82-1.79-.07-.43-.05-.85,.39-.92Z" fill="#2e503b"/><path d="M196.58,86.05c-2.48,.39-4.72-1.08-5.18-4-.47-3.02,1.12-6.23,4.37-6.74,.78-.12,1.94-.1,2.53,.34,.34,.25,.5,.78,.58,1.25,.14,.92,0,1.22-.38,1.28-.45,.07-.62-.38-.99-.82-.37-.44-1.09-1.07-2.12-.91-1.52,.24-2.57,1.92-2.19,4.4,.34,2.14,1.65,4.05,3.88,3.71,1.73-.27,2.19-1.68,2.64-1.75,.21-.03,.38,.12,.41,.32,.08,.53-.98,2.53-3.55,2.93Z" fill="#2e503b"/><path d="M210.38,82.45c.18-.03,.35,.06,.38,.26,.06,.37-.43,1.19-1.29,1.32-.64,.1-1.43-.18-1.72-1.31,0-.04-.02-.1-.05-.09s-.04,.03-.06,.09c-.54,1.16-1.67,1.86-2.87,2.05-1.89,.3-3.22-.69-3.44-2.04-.12-.78,.14-1.66,.88-2.31,.91-.84,2.08-1.25,3.07-1.92,.73-.47,1.49-1.17,1.33-2.23-.15-.94-.89-1.5-1.95-1.33-1.17,.18-1.65,1.04-2.04,1.8-.3,.61-.31,.97-.74,1.03-.47,.07-.62-.36-.7-.87s-.08-1.15,.11-1.47c.42-.76,1.96-1.29,3.07-1.46,2.49-.39,4,.81,4.3,2.74,.24,1.52,.46,3.32,.71,4.88,.11,.68,.39,.96,.78,.9l.23-.04Zm-3.42-3.88s-.03-.07-.07-.07-.06,.03-.12,.1c-.6,.63-1.83,1.17-2.67,1.94-.63,.58-.81,1.22-.72,1.77,.12,.78,.76,1.4,1.79,1.24,.76-.12,1.57-.69,1.89-1.71,.26-.88,.15-1.74-.04-2.93l-.05-.33Z" fill="#2e503b"/><path d="M221.75,76.17c.42,2.69-.69,6.04-3.75,6.52-1.64,.26-2.68-.42-2.84-.39-.04,0-.07,.05-.06,.11l.14,.92c.14,.92,.3,1.55,.54,1.89,.42,.61,1.09,.45,1.16,.88,.04,.27-.17,.43-.46,.47l-3.24,.51c-.29,.05-.56-.01-.6-.28-.07-.43,.75-.58,.88-1.3,.08-.39,.02-1.04-.12-1.94l-1.17-7.43c-.11-.72-.17-1.09-.42-1.37-.41-.45-1.17-.18-1.24-.66-.03-.18,.05-.33,.48-.49,.7-.27,1.2-.51,1.74-.85,.13-.08,.26-.14,.37-.16,.23-.04,.41,.09,.47,.45l.17,1.07c.02,.1,.06,.15,.12,.14,.04,0,.08-.01,.14-.12,.63-1.08,1.67-1.94,2.94-2.14,2.2-.35,4.28,1.19,4.75,4.19Zm-1.8,.98c-.41-2.61-1.97-3.89-3.49-3.65-1.62,.25-2.47,1.85-2.06,4.42,.43,2.71,1.81,4.05,3.45,3.79,1.73-.27,2.48-2.13,2.1-4.56Z" fill="#2e503b"/><path d="M232.79,77.99c.09,.55-1.12,2.55-3.71,2.96-2.98,.47-5.1-1.6-5.52-4.27-.45-2.85,1.15-5.91,4.17-6.39,2.81-.44,4.33,1.66,4.55,3.02,.19,1.19-.37,1.46-1.32,1.63,0,0-5.15,.81-5.28,.83s-.21,.09-.18,.23l.02,.1c.32,2.05,1.78,3.7,3.84,3.37,1.91-.3,2.48-1.75,2.95-1.82,.23-.04,.45,.07,.49,.34Zm-7.43-3.29c.02,.1,.06,.11,.17,.09,.14-.02,3.18-.5,3.18-.5,1.13-.18,1.6-.49,1.46-1.39s-1.09-1.85-2.47-1.63c-1.56,.24-2.35,1.73-2.35,3.21,0,.16,.01,.2,.01,.22Z" fill="#2e503b"/><path d="M234.87,76.29c.45-.07,.76,.5,1.28,1.04,.62,.62,1.43,1.25,2.64,1.06s1.85-1.07,1.71-1.95c-.4-2.55-5.84-.44-6.38-3.91-.3-1.89,1.26-3.43,3.4-3.77,.96-.15,1.91-.06,2.41,.2,.57,.29,.78,.9,.86,1.38,.07,.45,.16,1.13-.41,1.22-.47,.07-.57-.33-1.08-.87-.48-.5-1.14-1-2.11-.85-.82,.13-1.61,.81-1.47,1.73,.19,1.21,1.67,1.26,3.17,1.52,1.48,.25,2.96,.69,3.24,2.47,.28,1.79-1.13,3.51-3.56,3.89-1.36,.21-2.7-.04-3.29-.46-.47-.35-.72-1.18-.82-1.79-.07-.43-.05-.85,.39-.92Z" fill="#2e503b"/></g><g><g><path d="M34.72,102.97l5.2,.27-.64-4.1,1.67,.1,.93,5.93-12.73-.68-.92-5.9,1.67,.1,.63,4.05,2.51,.13-.58-3.71,1.67,.08,.58,3.73Z" fill="#2e503b"/><path d="M36.08,92.86c-.77,.12-1.37,.59-1.75,1.39l-.46,.99c-.43,.92-1.08,1.61-2.37,1.81-2.18,.34-3.9-1.18-4.18-3.01s.81-2.87,2.29-3.1c.26-.04,.68-.05,.88-.05l.19,1.65c-.14,0-.38,0-.61,.04-.79,.12-1.17,.61-1.06,1.3,.14,.9,1.09,1.52,2,1.38,.65-.1,1.04-.47,1.33-1.05l.5-1.07c.54-1.18,1.58-1.91,2.86-2.11,2.25-.35,4.3,1.08,4.63,3.21,.28,1.8-.59,3.14-3.04,3.52-.25,.04-.53,.08-.83,.09l-.38-1.76c.14,0,.52,0,.82-.06,1.25-.2,1.89-.71,1.75-1.62-.15-.99-1.32-1.76-2.57-1.56Z" fill="#2e503b"/><path d="M26.85,89.74l-1.13-7.23,1.69,.1,.42,2.68,11.04,.6,.29,1.85-11.04-.6,.42,2.71-1.69-.1Z" fill="#2e503b"/></g><g><path d="M26.22,72.82l1.56,2.46-1.84-.09-2.23-3.37-.14-.88,12.47,.62,.28,1.76-10.11-.5Z" fill="#2e503b"/><path d="M24.45,64.99l.73,4.55-1.63-.08-1.07-6.61,1.1,.06,11.81,4.7,.3,1.86-11.26-4.48Z" fill="#2e503b"/></g></g></g></g></svg>