<?xml version="1.0" encoding="UTF-8"?><svg id="b" xmlns="http://www.w3.org/2000/svg" width="172.25" height="172.25" viewBox="0 0 172.25 172.25"><g id="c"><g><g><path d="M21.61,117.12l6.88-.73,.8,1.66-9.3,7.48-.78-1.61,7.36-5.85-7.28,.82-.52-1.08,5.19-5.23-9.18,2.17-.75-1.55,11.64-2.65,.8,1.66-4.85,4.93Z" fill="#2e503b"/><path d="M12.16,106.56l-.46-1.73,11.24-3.01,.46,1.73-11.24,3.01Z" fill="#2e503b"/><path d="M10.15,97.48l-.2-1.78,9.99-1.14-.6-5.3,1.57-.18,.8,7.07-11.56,1.31Z" fill="#2e503b"/><path d="M9.21,83.48l.33-3.91c.24-2.85,2.65-5.21,6.11-4.92,3.73,.32,5.73,3.02,5.49,5.87l-.34,3.95-11.59-.99Zm10.35-3.06c.17-1.93-1.39-3.69-4.07-3.92-2.47-.21-4.22,1.34-4.38,3.25l-.18,2.08,8.45,.72,.18-2.13Z" fill="#2e503b"/><path d="M20.44,58.14c-3.08-1.57-4.24-4.83-2.85-7.55,1.07-2.1,2.87-3.21,5.25-2.82l-.34,1.76c-1.2-.2-2.59,.18-3.43,1.82-.97,1.91,.11,4.07,2.21,5.14,2.19,1.12,4.55,.69,5.53-1.21,.85-1.67,.23-3.26-1.06-4.26l1.09-1.43c2.22,1.64,2.56,4.27,1.45,6.44-1.4,2.74-4.64,3.75-7.85,2.11Z" fill="#2e503b"/><path d="M33.97,40.34l-2.52,3.04,2.17,3.63-1.16,1.4-6.27-10.66,1.32-1.6,11.63,4.19-1.22,1.47-3.95-1.48Zm-3.42,1.68l1.91-2.3-4.27-1.61h-.01s2.37,3.92,2.37,3.92Z" fill="#2e503b"/><path d="M38.55,29.46l5.23,6.75-1.39,1.07-7.12-9.19,1.36-1.05,9.92,3.2-5.27-6.8,1.38-1.06,7.12,9.19-1.36,1.05-9.87-3.16Z" fill="#2e503b"/><path d="M48.64,18.67l1.7-.8,6.89,7.3,.04-.02-1.21-9.96,1.63-.77,1.34,12.21-1.85,.87-8.55-8.83Z" fill="#2e503b"/><path d="M71.88,18.3l-3.84,.9-.46,4.2-1.77,.42,1.44-12.29,2.02-.47,6.73,10.37-1.86,.43-2.26-3.57Zm-3.74-.73l2.91-.68-2.43-3.87h-.02s-.47,4.55-.47,4.55Z" fill="#2e503b"/><path d="M79.49,17.03l1.75-.19c.18,1.92,1.38,2.77,2.85,2.74,1.25-.03,2.39-.71,2.36-1.85-.03-1.08-.98-1.62-2.51-2.03l-1.04-.29c-2.05-.56-2.91-1.46-2.95-2.98-.05-1.88,1.56-3.25,3.86-3.3,2.37-.06,4.08,1.24,4.16,3.27v.13s-1.73,.21-1.73,.21v-.1c-.07-1.48-1.14-2.03-2.39-2-1.27,.03-2.17,.72-2.15,1.67,.02,.81,.55,1.17,2.1,1.61l1.08,.29c2.27,.62,3.34,1.63,3.38,3.37,.05,2.06-1.72,3.48-4.14,3.54-2.29,.06-4.34-1.04-4.62-4.07Z" fill="#2e503b"/><path d="M103.82,22.42c.18-.6,.81-.95,1.43-.77,.61,.18,.96,.83,.78,1.43-.19,.62-.83,.97-1.44,.78-.62-.19-.96-.83-.77-1.45Z" fill="#2e503b"/><path d="M124.16,33.55c-2.56-1.85-3.06-5.19-.93-8.12,2.06-2.84,5.39-3.46,7.95-1.6,1.9,1.37,2.84,3.37,2.1,5.6l-1.69-.57c.36-1.09,.06-2.65-1.38-3.69-1.77-1.28-4.05-.62-5.47,1.35-1.48,2.04-1.38,4.42,.39,5.7,1.41,1.02,3.05,.98,4.21-.11l-2.59-1.87,.91-1.25,4.1,2.97-.27,.38c-1.95,2.69-5.01,2.9-7.32,1.22Z" fill="#2e503b"/><path d="M140.62,32.1l1.21,1.32-7.4,6.8,3.61,3.93-1.16,1.07-4.82-5.24,8.57-7.87Z" fill="#2e503b"/><path d="M146.2,51.96l-2.06-3.37-4.14,.88-.95-1.56,12.11-2.49,1.08,1.77-7.74,9.65-.99-1.63,2.68-3.27Zm-.48-3.78l1.56,2.55,2.91-3.53h0s-4.46,.97-4.46,.97Z" fill="#2e503b"/><path d="M146.96,62.56l-.55-1.68,11.04-3.64,.56,1.71-3.05,4.81,5.3,2.03,.55,1.67-11.04,3.64-.56-1.68,8.5-2.8-4.73-1.87-.22-.68,2.68-4.3-8.49,2.8Z" fill="#2e503b"/><path d="M156.05,77.9l-5.14,.51-.18-1.78,11.57-1.15,.44,4.38c.2,2-.79,3.57-2.86,3.78-2.13,.21-3.38-1.24-3.58-3.21l-.25-2.53Zm1.59-.16l.24,2.41c.11,1.13,.83,1.73,1.8,1.64,.99-.1,1.58-.9,1.47-1.98l-.24-2.4-3.27,.32Z" fill="#2e503b"/><path d="M162.95,89.9l-.1,1.79-11.61-.64,.1-1.79,11.61,.64Z" fill="#2e503b"/><path d="M158.68,100.4l-8.32-1.93,.4-1.71,11.33,2.63-.39,1.68-9.71,3.79,8.38,1.95-.39,1.69-11.33-2.63,.39-1.68,9.64-3.79Z" fill="#2e503b"/><path d="M144.46,115.42c1.4-2.83,4.61-3.88,7.85-2.27,3.14,1.56,4.31,4.74,2.91,7.58-1.04,2.1-2.85,3.36-5.17,3l.28-1.76c1.14,.17,2.62-.38,3.4-1.97,.97-1.96-.07-4.1-2.24-5.18-2.26-1.12-4.59-.63-5.56,1.34-.77,1.56-.46,3.17,.81,4.13l1.42-2.86,1.39,.69-2.25,4.54-.42-.21c-2.98-1.47-3.69-4.46-2.43-7.02Z" fill="#2e503b"/><path d="M126.77,137.61l5.82-5.23,7.78,8.64-5.78,5.2-1.06-1.17,4.45-4-1.81-2.01-4.14,3.72-1.06-1.17,4.14-3.72-2.8-3.11-4.49,4.03-1.06-1.17Z" fill="#2e503b"/><path d="M125.51,143.55l-1.43,1.02c-1.1-1.59-2.55-1.75-3.82-1-1.08,.64-1.74,1.78-1.16,2.77,.55,.93,1.64,.94,3.18,.55l1.05-.26c2.07-.51,3.25-.15,4.03,1.17,.96,1.62,.22,3.6-1.76,4.77-2.04,1.21-4.17,.9-5.23-.83l-.07-.11,1.41-1.03,.05,.09c.78,1.26,1.98,1.22,3.06,.58,1.09-.65,1.55-1.69,1.06-2.5-.41-.7-1.05-.75-2.62-.38l-1.08,.27c-2.29,.56-3.71,.2-4.59-1.3-1.05-1.77-.2-3.88,1.89-5.12,1.97-1.17,4.29-1.21,6.01,1.31Z" fill="#2e503b"/><path d="M113.89,151.98c1.09,3.28-.37,6.41-3.27,7.37-2.24,.74-4.29,.27-5.72-1.68l1.48-1.02c.72,.99,1.97,1.69,3.72,1.11,2.03-.67,2.78-2.97,2.04-5.21-.78-2.33-2.76-3.69-4.79-3.02-1.78,.59-2.45,2.16-2.23,3.77l-1.78,.26c-.43-2.73,1.17-4.84,3.49-5.61,2.92-.97,5.94,.59,7.07,4.01Z" fill="#2e503b"/><path d="M91.78,155.18l3.92-.41,.99-4.11,1.81-.19-2.98,12-2.06,.21-5.37-11.14,1.89-.2,1.79,3.82Zm3.62,1.2l-2.98,.31,1.92,4.14h.02s1.04-4.45,1.04-4.45Z" fill="#2e503b"/><path d="M81.28,156.35l.5-5.14,1.78,.18-1.13,11.57-4.38-.43c-2-.2-3.35-1.48-3.15-3.55,.21-2.13,1.88-3.07,3.84-2.88l2.53,.25Zm-.16,1.59l-2.41-.24c-1.13-.11-1.86,.47-1.96,1.44-.1,.99,.57,1.73,1.65,1.83l2.4,.24,.32-3.27Z" fill="#2e503b"/><path d="M63.68,147.39l7.49,2.24-3.34,11.15-7.45-2.23,.45-1.51,5.73,1.72,.78-2.6-5.33-1.59,.45-1.51,5.33,1.6,1.2-4.01-5.78-1.73,.45-1.51Z" fill="#2e503b"/><path d="M57.96,149.4l-1.62-.69c.79-1.76,.16-3.09-1.13-3.78-1.11-.59-2.43-.56-2.97,.46-.51,.95,.06,1.89,1.19,3l.77,.76c1.51,1.5,1.82,2.7,1.11,4.05-.88,1.66-2.95,2.06-4.99,.98-2.1-1.11-2.94-3.08-2.02-4.89l.06-.12,1.61,.67-.05,.09c-.66,1.32,0,2.33,1.1,2.92,1.12,.6,2.25,.44,2.69-.4,.38-.72,.09-1.28-1.04-2.43l-.8-.78c-1.67-1.66-2.11-3.05-1.29-4.6,.97-1.82,3.21-2.19,5.35-1.05,2.02,1.07,3.27,3.03,2.02,5.81Z" fill="#2e503b"/><path d="M39.42,132.76c-.45,.44-1.17,.44-1.63-.03-.44-.46-.43-1.19,.03-1.63,.47-.45,1.2-.43,1.64,.02,.45,.47,.43,1.19-.04,1.64Z" fill="#2e503b"/></g><path d="M137.54,92.43s-4.89-.92-13.32-6.44c-7.79-5.1-20.32-15.27-35.81-34.8,0-.01-.02-.02-.03-.03,0,0-.01-.02-.02-.03,0,0,0,0,0-.01-.01-.06-.04-.12-.08-.17,0,0,0,0,0,0,0,0-.01-.01-.02-.02-.04-.04-.07-.07-.12-.09,0,0-.01-.01-.02-.01-.02,0-.04,0-.06,0-.01,0-.03,0-.04,0-.04,0-.09,.01-.13,.03,0,0,0,0,0,0-.04,.02-.08,.05-.11,.09,0,0,0,0-.01,0-31.71,38.47-51.24,43-51.43,43.04-.18,.04-.32,.24-.32,.48,0,.23,.14,.41,.31,.43h0c2.56,.2,4.11,.98,4.46,2.25,.45,1.61-1.07,3.66-1.09,3.68,0,0,0,0,0,.01,0,.01-.01,.02-.02,.04-.02,.03-.04,.07-.05,.1,0,.02,0,.03-.01,.05,0,.04-.01,.07-.01,.11,0,.02,0,.03,0,.05,0,.05,.01,.1,.03,.15,0,0,0,0,0,0,0,0,0,0,0,0,0,0,0,.01,.01,.02,.02,.04,.04,.07,.06,.1,0,.01,.02,.02,.03,.03,.03,.02,.05,.04,.08,.06,0,0,.02,0,.03,.01,.04,.01,.08,.02,.12,.02,22.12-1.92,23.39,8.93,23.41,9.08,0,.01,0,.02,0,.04,0,.03,0,.05,.02,.08,0,.02,.01,.04,.02,.06,0,0,0,.02,.01,.03,0,0,.01,.01,.02,.02,.02,.03,.05,.06,.07,.08,.01,0,.02,.02,.03,.03,.04,.03,.08,.04,.13,.05h0s0,0,0,0h0s.05,0,.08,0c.01,0,.02-.01,.04-.02,.01,0,.02,0,.03,0,.2-.09,20.73-9.11,47.1-1.16,.01,0,.02,0,.03,0,0,0,.01,0,.02,0,.02,0,.04,0,.05,0,.05,0,.09-.02,.13-.05,.01,0,.02-.01,.03-.02,.03-.02,.05-.04,.08-.07,.01-.01,.02-.03,.03-.04,0-.01,.02-.02,.02-.03,.01-.02,.02-.05,.03-.07,0-.02,.01-.03,.02-.05,.01-.05,.02-.11,.02-.16,0,0,0,0,0,0,0-.02-.03-1.81,1.56-3.83,2.23-2.82,7.59-6.05,20.52-5.38,.04,0,.08,0,.12-.02,.01,0,.02-.01,.03-.02,.03-.02,.06-.03,.08-.06,.01-.01,.02-.02,.03-.03,.03-.03,.05-.06,.07-.1,0,0,.01-.01,.01-.02,0,0,0,0,0,0,0,0,0,0,0,0,.02-.05,.03-.1,.03-.15,0-.02,0-.03,0-.05,0-.04,0-.07,0-.11,0-.02,0-.03-.01-.05,0-.04-.02-.07-.04-.1,0-.01-.01-.03-.02-.04,0,0,0,0,0-.01-.01-.02-1.42-2.02-.88-3.64,.42-1.28,2.01-2.11,4.59-2.41,.18-.02,.33-.21,.34-.44,.01-.23-.11-.43-.29-.47Zm-98.71,1.99c-.12-.04-.12-.26,0-.31,2.28-.88,6.14-2.67,11.45-6.21,7.53-5.01,19.39-14.55,34.33-31.98,.12-.14,.28,.05,.18,.21-7.57,12.24-18.31,22.96-26.46,30.14-7.23,6.37-13.59,11.02-16.62,13.15-.19,.13-.39-.09-.31-.35,.21-.71,.3-1.51,.08-2.28-.31-1.12-1.2-1.91-2.65-2.38Zm3.65,6.08c-.23,.01-.31-.37-.1-.52,3.17-2.24,9.76-6.77,16.74-12.92,8.93-7.87,20.55-19.99,28.2-33.72,.08-.14,.24-.07,.23,.1-1.49,16.11-18.22,46.56-22.89,54.8-.32,.57-.98,.57-1.25,0-1.5-3.18-6.2-8.42-20.93-7.72Zm24.5,8.12c-.57,.19-.99-.61-.64-1.24,2.23-3.96,6.12-10.98,10.21-19.48,6.23-12.91,9.71-23.18,11.17-30.69,.06-.29,.38-.3,.42-.01,1.11,7.46,4.48,17.68,10.54,30.36,3.83,8.01,7.99,15.03,10.22,18.94,.42,.74-.13,1.79-.84,1.6-20.01-5.47-34.94-1.53-41.08,.51Zm45.49-3.71c-.47,.59-.81,1.17-1.07,1.71-.33,.69-1.09,.77-1.45,.14-4.82-8.41-20.52-36.66-21.25-52.48,0-.17,.16-.24,.23-.11,6.91,13.46,18.08,24.54,26.59,32.09,6.9,6.13,13.04,10.57,15.97,12.61,.12,.08,.05,.3-.08,.3-11.66-.22-16.74,2.95-18.95,5.74Zm19.77-9.49c-.26,.79-.21,1.61-.03,2.33,.06,.23-.14,.45-.31,.33-2.9-2.01-9.04-6.44-15.95-12.58-7.76-6.9-17.93-17.25-24.84-29.23-.09-.16,.08-.35,.2-.22,21.73,26.25,37.48,34.21,43.45,36.45,.21,.08,.19,.46-.02,.54-1.32,.52-2.15,1.32-2.5,2.37Z" fill="#2e503b"/><path d="M86.12,143.31c-31.53,0-57.19-25.65-57.19-57.19S54.59,28.94,86.12,28.94s57.19,25.65,57.19,57.19-25.65,57.19-57.19,57.19Zm-.29-112.23c-30.75,0-55.48,24.29-55.48,55.04s25.06,55.31,55.81,55.31,55.72-24.55,55.72-55.31-25.31-55.04-56.06-55.04Z" fill="#2e503b"/><path d="M25.2,25.2c33.6-33.6,88.26-33.6,121.86,0,33.6,33.6,33.6,88.26,0,121.86-33.6,33.6-88.26,33.6-121.86,0s-33.6-88.26,0-121.86Zm120.33,120.4c33.04-33.04,33.56-86.35,.52-119.39C113.01-6.84,59.83-6.43,26.78,26.61-6.26,59.65-6.84,113.01,26.2,146.05c33.04,33.04,86.29,32.59,119.33-.46Z" fill="#2e503b"/></g></g></svg>