<?xml version="1.0" encoding="UTF-8"?><svg id="b" xmlns="http://www.w3.org/2000/svg" width="228.24" height="109.77" viewBox="0 0 228.24 109.77"><g id="c"><path d="M227.48,64.37c-.11,0-11.17-.77-31.33-8.99-18.61-7.59-49.01-23.25-88.1-54.79-.02-.02-.05-.02-.08-.04-.02-.01-.03-.04-.06-.05,0,0-.01-.01-.01-.02-.05-.11-.11-.21-.21-.29,0,0,0,0-.01,0-.01-.01-.03-.02-.05-.03-.09-.06-.18-.11-.28-.13-.01,0-.03-.02-.04-.02-.05,0-.09,0-.13,0-.03,0-.06,0-.09,0-.1,.01-.19,.03-.27,.08,0,0,0,0,0,0-.08,.04-.16,.1-.22,.17,0,0-.02,.01-.02,.02C43.89,73.17,1.04,84.49,.61,84.6c-.4,.1-.66,.48-.61,.89,.05,.4,.4,.7,.8,.7h.01c5.8-.09,9.43,1,10.51,3.16,1.37,2.74-1.59,6.59-1.62,6.63,0,0,0,.01-.01,.02-.02,.02-.02,.04-.04,.07-.04,.06-.06,.12-.08,.19,0,.03-.01,.06-.02,.09-.01,.07-.01,.13,0,.2,0,.03,0,.05,0,.08,.02,.09,.04,.17,.09,.25,0,0,0,0,0,.01,0,0,0,0,0,.01,0,.01,.02,.02,.03,.03,.05,.07,.1,.12,.16,.17,.02,.02,.04,.03,.07,.05,.06,.04,.13,.07,.2,.09,.02,0,.04,.01,.06,.02,.09,.02,.18,.03,.28,.01,49.24-7.18,54.5,11.61,54.56,11.86,0,.02,.02,.04,.03,.06,.01,.05,.03,.09,.06,.13,.02,.04,.04,.07,.07,.11,.01,.02,.02,.04,.03,.05,.01,.01,.03,.02,.04,.03,.05,.05,.11,.1,.18,.13,.03,.01,.05,.03,.08,.04,.09,.04,.19,.06,.3,.06h0c.06,0,.12,0,.18-.02,.03,0,.05-.03,.08-.03,.02,0,.05,0,.07-.02,.44-.2,44.52-19.55,105.49-10.18,.02,0,.05,0,.07,0,.02,0,.03,0,.05,0,.04,0,.08,0,.12-.01,.1-.02,.2-.05,.29-.1,.02-.01,.04-.03,.06-.04,.06-.04,.11-.09,.15-.14,.02-.03,.04-.05,.06-.08,.01-.02,.03-.04,.04-.06,.02-.04,.03-.08,.04-.12,0-.03,.02-.05,.03-.08,.02-.1,.03-.19,.01-.29,0,0,0,0,0,0,0-.03-.47-3.17,2.66-6.98,4.37-5.33,15.71-11.91,44.87-12.98,.09,0,.18-.03,.27-.06,.02,0,.04-.02,.06-.03,.06-.03,.12-.07,.17-.12,.02-.02,.04-.04,.06-.06,.05-.06,.09-.12,.13-.19,0-.02,.02-.02,.03-.04,0,0,0,0,0-.01,0,0,0,0,0-.01,.03-.09,.04-.18,.04-.27,0-.03,0-.05,0-.08,0-.07-.02-.13-.04-.19-.01-.03-.02-.06-.04-.09-.03-.06-.07-.11-.11-.17-.02-.02-.03-.04-.05-.06,0,0,0-.01-.02-.02-.04-.03-3.64-3.29-2.79-6.23,.67-2.32,4.05-4.05,9.77-5.01,.41-.07,.69-.43,.67-.84-.02-.41-.35-.74-.76-.76ZM6.3,84.92c-.28-.05-.33-.44-.06-.54,4.92-1.94,13.19-5.75,24.33-12.86,15.79-10.07,40.31-28.84,69.99-61.97,.24-.26,.65,.04,.46,.34-14.29,22.76-36.03,43.4-52.73,57.4-14.82,12.41-28.07,21.66-34.41,25.91-.39,.26-.89-.1-.78-.56,.31-1.29,.33-2.7-.32-4.01-.95-1.91-3.12-3.15-6.48-3.71Zm9.54,10.03c-.52,.06-.78-.6-.35-.89,6.62-4.47,20.4-13.55,34.72-25.54,18.3-15.33,41.71-38.59,55.85-63.96,.14-.26,.53-.16,.53,.13,.22,28.49-30.58,84.74-39.24,99.98-.6,1.05-2.08,1.17-2.81,.2-4.06-5.31-15.79-13.68-48.7-9.91Zm55.51,11.03c-1.25,.44-2.36-.9-1.71-2.06,4.13-7.32,12.6-21.33,19.92-36.92,11.12-23.7,16.67-42.3,18.27-55.71,.06-.52,.78-.59,.94-.09,4.15,12.87,13.97,30.21,30.4,51.38,10.37,13.37,21.27,24.95,27.14,31.42,1.11,1.22,.1,3.17-1.53,2.95-46.14-6.12-80.08,4.38-93.42,9.03Zm102.62-15.4c-.92,1.12-1.56,2.19-2.02,3.18-.59,1.27-2.28,1.53-3.22,.49-12.69-13.91-54.77-61.71-59.91-89.3-.05-.29,.31-.45,.5-.23,18.5,22.39,46.61,40.88,67.37,52.65,16.86,9.55,31.61,16.27,38.66,19.33,.28,.12,.19,.52-.11,.54-26.24,1.63-36.94,8.06-41.27,13.33Zm42.28-20.04c-.41,1.44-.11,2.86,.45,4.09,.18,.4-.21,.81-.61,.64-6.97-3.02-21.71-9.72-38.6-19.29-18.96-10.74-44.07-27.12-62.25-46.92-.24-.26,.11-.63,.39-.42,54.61,42.25,91.72,53.46,105.64,56.36,.49,.1,.53,.77,.07,.95-2.84,1.14-4.54,2.68-5.09,4.59Z" fill="#2e503b"/></g></svg>